<svg xmlns="http://www.w3.org/2000/svg" xmlns:xlink="http://www.w3.org/1999/xlink" x="0px" y="0px" viewBox="0 0 900 420" enable-background="new 0 0 900 420" xml:space="preserve">
<g id="what-is-powerBI">
<g>
<path fill="#231F20" d="M371.4,407.9v2.9h-1v-2.9l-2.1-4.1h1.1l1.5,3h0.1l1.5-3h1.1L371.4,407.9z"></path>
<path fill="#231F20" d="M374.8,406.2c0-0.1,0-0.3,0-0.5s0.1-0.4,0.2-0.5c0.1-0.2,0.2-0.4,0.3-0.5s0.3-0.3,0.5-0.5
			c0.2-0.1,0.4-0.2,0.7-0.3s0.6-0.1,0.9-0.1c0.3,0,0.6,0,0.9,0.1c0.3,0.1,0.5,0.2,0.7,0.3c0.2,0.1,0.3,0.3,0.5,0.5s0.2,0.4,0.3,0.5
			c0.1,0.2,0.1,0.4,0.2,0.5c0,0.2,0,0.3,0,0.5v2.2c0,0.1,0,0.3,0,0.5c0,0.2-0.1,0.3-0.2,0.5c-0.1,0.2-0.2,0.4-0.3,0.5
			s-0.3,0.3-0.5,0.5c-0.2,0.1-0.4,0.2-0.7,0.3c-0.3,0.1-0.6,0.1-0.9,0.1c-0.3,0-0.6,0-0.9-0.1c-0.3-0.1-0.5-0.2-0.7-0.3
			c-0.2-0.1-0.3-0.3-0.5-0.5s-0.2-0.4-0.3-0.5c-0.1-0.2-0.1-0.4-0.2-0.5s0-0.3,0-0.5V406.2z M378.9,406.1c0-0.1,0-0.3-0.1-0.5
			c0-0.2-0.1-0.3-0.2-0.5c-0.1-0.2-0.3-0.3-0.5-0.4c-0.2-0.1-0.5-0.2-0.8-0.2c-0.3,0-0.6,0.1-0.8,0.2c-0.2,0.1-0.4,0.2-0.5,0.4
			s-0.2,0.3-0.2,0.5c0,0.2-0.1,0.3-0.1,0.5v2.3c0,0.1,0,0.3,0.1,0.5c0,0.2,0.1,0.3,0.2,0.5s0.3,0.3,0.5,0.4c0.2,0.1,0.5,0.2,0.8,0.2
			c0.3,0,0.6-0.1,0.8-0.2c0.2-0.1,0.4-0.2,0.5-0.4c0.1-0.2,0.2-0.3,0.2-0.5c0-0.2,0.1-0.3,0.1-0.5V406.1z"></path>
<path fill="#231F20" d="M386.9,403.8v4.5c0,0.2,0,0.4,0,0.6c0,0.2-0.1,0.4-0.2,0.6c-0.1,0.2-0.2,0.4-0.3,0.6
			c-0.1,0.2-0.3,0.3-0.5,0.5s-0.4,0.2-0.7,0.3c-0.3,0.1-0.6,0.1-0.9,0.1s-0.6,0-0.9-0.1c-0.3-0.1-0.5-0.2-0.7-0.3s-0.3-0.3-0.5-0.5
			c-0.1-0.2-0.2-0.4-0.3-0.6s-0.1-0.4-0.2-0.6c0-0.2,0-0.4,0-0.6v-4.5h1v4.5c0,0.2,0,0.4,0.1,0.6c0,0.2,0.1,0.4,0.2,0.5
			s0.3,0.3,0.5,0.4c0.2,0.1,0.4,0.1,0.8,0.1s0.6,0,0.8-0.1c0.2-0.1,0.4-0.2,0.5-0.4c0.1-0.2,0.2-0.3,0.2-0.5c0-0.2,0.1-0.4,0.1-0.6
			v-4.5H386.9z"></path>
<path fill="#231F20" d="M394.4,410.8h-1.1l-1.4-2.9h-1.7v2.9h-1v-7h2.9c0.1,0,0.3,0,0.4,0.1c0.1,0,0.3,0.1,0.4,0.2
			s0.3,0.2,0.4,0.3c0.1,0.1,0.3,0.2,0.4,0.4c0.1,0.2,0.2,0.3,0.3,0.5s0.1,0.4,0.1,0.7c0,0.3,0,0.5-0.1,0.7c-0.1,0.2-0.2,0.4-0.3,0.5
			s-0.3,0.3-0.4,0.4c-0.2,0.1-0.3,0.2-0.5,0.3L394.4,410.8z M392.2,407c0.1,0,0.2,0,0.3-0.1s0.2-0.1,0.3-0.2
			c0.1-0.1,0.2-0.2,0.3-0.4c0.1-0.1,0.1-0.3,0.1-0.5c0-0.2,0-0.4-0.1-0.5c-0.1-0.1-0.2-0.3-0.3-0.4c-0.1-0.1-0.2-0.2-0.3-0.2
			s-0.2-0.1-0.3-0.1h-2v2.3H392.2z"></path>
<path fill="#231F20" d="M399.6,406.2c0-0.1,0-0.3,0-0.5s0.1-0.4,0.2-0.5c0.1-0.2,0.2-0.4,0.3-0.5s0.3-0.3,0.5-0.5
			c0.2-0.1,0.4-0.2,0.7-0.3s0.6-0.1,0.9-0.1c0.3,0,0.6,0,0.9,0.1c0.3,0.1,0.5,0.2,0.7,0.3c0.2,0.1,0.3,0.3,0.5,0.5s0.2,0.4,0.3,0.5
			c0.1,0.2,0.1,0.4,0.2,0.5c0,0.2,0,0.3,0,0.5v2.2c0,0.1,0,0.3,0,0.5c0,0.2-0.1,0.3-0.2,0.5c-0.1,0.2-0.2,0.4-0.3,0.5
			s-0.3,0.3-0.5,0.5c-0.2,0.1-0.4,0.2-0.7,0.3c-0.3,0.1-0.6,0.1-0.9,0.1c-0.3,0-0.6,0-0.9-0.1c-0.3-0.1-0.5-0.2-0.7-0.3
			c-0.2-0.1-0.3-0.3-0.5-0.5s-0.2-0.4-0.3-0.5c-0.1-0.2-0.1-0.4-0.2-0.5s0-0.3,0-0.5V406.2z M403.6,406.1c0-0.1,0-0.3-0.1-0.5
			c0-0.2-0.1-0.3-0.2-0.5c-0.1-0.2-0.3-0.3-0.5-0.4c-0.2-0.1-0.5-0.2-0.8-0.2c-0.3,0-0.6,0.1-0.8,0.2c-0.2,0.1-0.4,0.2-0.5,0.4
			s-0.2,0.3-0.2,0.5c0,0.2-0.1,0.3-0.1,0.5v2.3c0,0.1,0,0.3,0.1,0.5c0,0.2,0.1,0.3,0.2,0.5s0.3,0.3,0.5,0.4c0.2,0.1,0.5,0.2,0.8,0.2
			c0.3,0,0.6-0.1,0.8-0.2c0.2-0.1,0.4-0.2,0.5-0.4c0.1-0.2,0.2-0.3,0.2-0.5c0-0.2,0.1-0.3,0.1-0.5V406.1z"></path>
<path fill="#231F20" d="M411.9,410.8h-1.1l-1.4-2.9h-1.7v2.9h-1v-7h2.9c0.1,0,0.3,0,0.4,0.1c0.1,0,0.3,0.1,0.4,0.2
			s0.3,0.2,0.4,0.3c0.1,0.1,0.3,0.2,0.4,0.4c0.1,0.2,0.2,0.3,0.3,0.5s0.1,0.4,0.1,0.7c0,0.3,0,0.5-0.1,0.7c-0.1,0.2-0.2,0.4-0.3,0.5
			s-0.3,0.3-0.4,0.4c-0.2,0.1-0.3,0.2-0.5,0.3L411.9,410.8z M409.7,407c0.1,0,0.2,0,0.3-0.1s0.2-0.1,0.3-0.2
			c0.1-0.1,0.2-0.2,0.3-0.4c0.1-0.1,0.1-0.3,0.1-0.5c0-0.2,0-0.4-0.1-0.5c-0.1-0.1-0.2-0.3-0.3-0.4c-0.1-0.1-0.2-0.2-0.3-0.2
			s-0.2-0.1-0.3-0.1h-2v2.3H409.7z"></path>
<path fill="#231F20" d="M414.7,408.5c0,0.1,0,0.2,0.1,0.4c0,0.2,0.1,0.3,0.2,0.5s0.3,0.3,0.5,0.4c0.2,0.1,0.5,0.2,0.8,0.2
			c0.3,0,0.5,0,0.6-0.1c0.2-0.1,0.3-0.2,0.4-0.3c0.1-0.1,0.2-0.2,0.3-0.4c0.1-0.1,0.1-0.3,0.1-0.4c0-0.2,0-0.3,0.1-0.5
			c0-0.2,0-0.3,0-0.4h-1.3V407h2.3v0.9c0,0.1,0,0.3,0,0.5c0,0.2,0,0.4-0.1,0.6s-0.1,0.4-0.2,0.7c-0.1,0.2-0.2,0.4-0.4,0.6
			c-0.2,0.2-0.4,0.3-0.7,0.4c-0.3,0.1-0.6,0.2-1.1,0.2c-0.3,0-0.6,0-0.9-0.1c-0.3-0.1-0.5-0.2-0.7-0.3s-0.3-0.3-0.5-0.5
			s-0.2-0.3-0.3-0.5c-0.1-0.2-0.1-0.3-0.2-0.5c0-0.2,0-0.3,0-0.4v-2.4c0-0.1,0-0.3,0-0.4c0-0.2,0.1-0.3,0.2-0.5
			c0.1-0.2,0.2-0.3,0.3-0.5c0.1-0.2,0.3-0.3,0.5-0.5s0.4-0.2,0.7-0.3s0.6-0.1,0.9-0.1c0.3,0,0.6,0,0.8,0.1c0.2,0.1,0.4,0.2,0.6,0.3
			c0.2,0.1,0.3,0.2,0.5,0.4c0.1,0.1,0.2,0.3,0.3,0.4c0.1,0.2,0.2,0.3,0.2,0.4c0,0.1,0.1,0.3,0.1,0.4h-1c0-0.1-0.1-0.2-0.1-0.4
			s-0.2-0.2-0.3-0.4c-0.1-0.1-0.3-0.2-0.4-0.3c-0.2-0.1-0.4-0.1-0.6-0.1c-0.2,0-0.4,0-0.5,0.1c-0.2,0.1-0.3,0.1-0.4,0.2
			c-0.1,0.1-0.2,0.2-0.3,0.3c-0.1,0.1-0.1,0.2-0.2,0.3c0,0.1-0.1,0.2-0.1,0.3c0,0.1,0,0.2,0,0.2V408.5z"></path>
<path fill="#231F20" d="M420.3,410.8l2.6-7h0.8l2.6,7h-1l-0.5-1.5h-2.8l-0.5,1.5H420.3z M423.3,405.3l-1,3h2.2l-1-3H423.3z"></path>
<path fill="#231F20" d="M433.4,410.8h-0.9l-3.3-5.1h-0.1v5.1h-1v-7h0.9l3.3,5.2h0.1v-5.2h1V410.8z"></path>
<path fill="#231F20" d="M436.8,410.8h-1v-7h1V410.8z"></path>
<path fill="#231F20" d="M443.4,404.6l-3.4,5.3h3.4v0.9h-4.5v-0.8l3.4-5.3h-3.2v-0.9h4.3V404.6z"></path>
<path fill="#231F20" d="M445.1,410.8l2.6-7h0.8l2.6,7h-1l-0.5-1.5h-2.8l-0.5,1.5H445.1z M448,405.3l-1,3h2.2l-1-3H448z"></path>
<path fill="#231F20" d="M456.4,404.7h-2v6.1h-1v-6.1h-2v-0.9h4.9V404.7z"></path>
<path fill="#231F20" d="M459.3,410.8h-1v-7h1V410.8z"></path>
<path fill="#231F20" d="M461.5,406.2c0-0.1,0-0.3,0-0.5c0-0.2,0.1-0.4,0.2-0.5c0.1-0.2,0.2-0.4,0.3-0.5c0.1-0.2,0.3-0.3,0.5-0.5
			c0.2-0.1,0.4-0.2,0.7-0.3c0.3-0.1,0.6-0.1,0.9-0.1c0.3,0,0.6,0,0.9,0.1c0.3,0.1,0.5,0.2,0.7,0.3c0.2,0.1,0.3,0.3,0.5,0.5
			c0.1,0.2,0.2,0.4,0.3,0.5c0.1,0.2,0.1,0.4,0.2,0.5c0,0.2,0,0.3,0,0.5v2.2c0,0.1,0,0.3,0,0.5c0,0.2-0.1,0.3-0.2,0.5
			c-0.1,0.2-0.2,0.4-0.3,0.5c-0.1,0.2-0.3,0.3-0.5,0.5c-0.2,0.1-0.4,0.2-0.7,0.3c-0.3,0.1-0.6,0.1-0.9,0.1c-0.3,0-0.6,0-0.9-0.1
			c-0.3-0.1-0.5-0.2-0.7-0.3c-0.2-0.1-0.3-0.3-0.5-0.5c-0.1-0.2-0.2-0.4-0.3-0.5c-0.1-0.2-0.1-0.4-0.2-0.5c0-0.2,0-0.3,0-0.5V406.2z
			 M465.6,406.1c0-0.1,0-0.3-0.1-0.5c0-0.2-0.1-0.3-0.2-0.5s-0.3-0.3-0.5-0.4c-0.2-0.1-0.5-0.2-0.8-0.2c-0.3,0-0.6,0.1-0.8,0.2
			c-0.2,0.1-0.4,0.2-0.5,0.4c-0.1,0.2-0.2,0.3-0.2,0.5s-0.1,0.3-0.1,0.5v2.3c0,0.1,0,0.3,0.1,0.5s0.1,0.3,0.2,0.5
			c0.1,0.2,0.3,0.3,0.5,0.4c0.2,0.1,0.5,0.2,0.8,0.2c0.3,0,0.6-0.1,0.8-0.2c0.2-0.1,0.4-0.2,0.5-0.4s0.2-0.3,0.2-0.5
			c0-0.2,0.1-0.3,0.1-0.5V406.1z"></path>
<path fill="#231F20" d="M474,410.8h-0.9l-3.3-5.1h-0.1v5.1h-1v-7h0.9l3.3,5.2h0.1v-5.2h1V410.8z"></path>
<path fill="#231F20" d="M477,404.8l-0.9,0.8h-0.1v-1.8h0.9V404.8z"></path>
<path fill="#231F20" d="M481.4,403.7c0.3,0,0.6,0,0.9,0.1c0.3,0.1,0.5,0.2,0.7,0.2c0.2,0.1,0.4,0.2,0.6,0.3l-0.6,0.8
			c-0.1-0.1-0.1-0.1-0.2-0.1c-0.1,0-0.2-0.1-0.2-0.1c-0.2-0.1-0.3-0.1-0.5-0.2c-0.2-0.1-0.4-0.1-0.6-0.1c-0.2,0-0.4,0-0.6,0.1
			c-0.2,0.1-0.3,0.1-0.4,0.2c-0.1,0.1-0.2,0.2-0.3,0.3c-0.1,0.1-0.1,0.3-0.1,0.4c0,0.1,0,0.2,0.1,0.4s0.1,0.2,0.2,0.3
			c0.1,0.1,0.3,0.2,0.5,0.3c0.2,0.1,0.5,0.2,0.8,0.2c0.3,0.1,0.6,0.2,0.9,0.3c0.3,0.1,0.5,0.2,0.7,0.4c0.2,0.2,0.3,0.3,0.5,0.6
			s0.2,0.5,0.2,0.7c0,0.3-0.1,0.6-0.2,0.8s-0.3,0.5-0.5,0.6s-0.5,0.3-0.8,0.4c-0.3,0.1-0.7,0.1-1.1,0.1c-0.4,0-0.8,0-1.1-0.1
			c-0.3-0.1-0.6-0.2-0.8-0.3c-0.1-0.1-0.2-0.1-0.3-0.2c-0.1-0.1-0.2-0.2-0.3-0.2l0.6-0.7c0.1,0.1,0.3,0.3,0.5,0.4
			c0.2,0.1,0.4,0.2,0.6,0.3c0.2,0.1,0.5,0.1,0.8,0.1c0.3,0,0.5,0,0.7-0.1s0.4-0.1,0.5-0.2c0.1-0.1,0.3-0.2,0.3-0.3
			c0.1-0.1,0.1-0.3,0.1-0.5c0-0.2,0-0.3-0.1-0.4c-0.1-0.1-0.2-0.2-0.3-0.3c-0.1-0.1-0.3-0.2-0.5-0.2c-0.2-0.1-0.5-0.1-0.7-0.2
			c-0.3-0.1-0.6-0.1-0.8-0.2c-0.3-0.1-0.5-0.2-0.7-0.4s-0.3-0.3-0.5-0.6c-0.1-0.2-0.2-0.5-0.2-0.8c0-0.3,0.1-0.6,0.2-0.9
			c0.1-0.2,0.3-0.5,0.5-0.6c0.2-0.2,0.5-0.3,0.8-0.4C480.8,403.8,481.1,403.7,481.4,403.7z"></path>
<path fill="#231F20" d="M491.7,410.8h-2.5v-7h2.5c0.3,0,0.6,0,0.9,0.1c0.3,0.1,0.5,0.2,0.7,0.3c0.2,0.1,0.3,0.3,0.5,0.4
			c0.1,0.2,0.2,0.3,0.3,0.5c0.1,0.2,0.1,0.3,0.2,0.5c0,0.2,0,0.3,0,0.5v2.4c0,0.1,0,0.3,0,0.4c0,0.2-0.1,0.3-0.2,0.5
			c-0.1,0.2-0.2,0.3-0.3,0.5c-0.1,0.2-0.3,0.3-0.5,0.4c-0.2,0.1-0.4,0.2-0.7,0.3C492.3,410.7,492,410.8,491.7,410.8z M490.2,404.7
			v5.2h1.6c0.3,0,0.6,0,0.7-0.1s0.3-0.2,0.5-0.3c0.1-0.1,0.2-0.3,0.2-0.4c0-0.2,0.1-0.3,0.1-0.4V406c0-0.1,0-0.3-0.1-0.4
			s-0.1-0.3-0.2-0.4c-0.1-0.1-0.3-0.2-0.5-0.3c-0.2-0.1-0.4-0.1-0.7-0.1H490.2z"></path>
<path fill="#231F20" d="M495.8,410.8l2.6-7h0.8l2.6,7h-1l-0.5-1.5h-2.8l-0.5,1.5H495.8z M498.7,405.3l-1,3h2.2l-1-3H498.7z"></path>
<path fill="#231F20" d="M507.2,404.7h-2v6.1h-1v-6.1h-2v-0.9h4.9V404.7z"></path>
<path fill="#231F20" d="M507.8,410.8l2.6-7h0.8l2.6,7h-1l-0.5-1.5h-2.8l-0.5,1.5H507.8z M510.7,405.3l-1,3h2.2l-1-3H510.7z"></path>
	</g>
<line id="line-3" x1="476.9" x2="510.9" y1="369.3" y2="369.3" fill="none" stroke="#231F20" stroke-width="2" stroke-miterlimit="10" width="35.9" height="0"></line>
<line id="divider" x1="456" x2="519" y1="357.3" y2="357.3" fill="none" stroke="#231F20" stroke-width="2" stroke-miterlimit="10" width="62.4" height="0"></line>
<line id="line-2" x1="476.9" x2="510.9" y1="345.4" y2="345.4" fill="none" stroke="#231F20" stroke-width="2" stroke-miterlimit="10" width="35.9" height="0"></line>
<line id="divider_2_" x1="456" x2="519" y1="333.6" y2="333.6" fill="none" stroke="#231F20" stroke-width="2" stroke-miterlimit="10" width="62.4" height="0"></line>
<line id="line-1" x1="476.9" x2="510.9" y1="321.2" y2="321.2" fill="none" stroke="#231F20" stroke-width="2" stroke-miterlimit="10" width="35.9" height="0"></line>
<rect id="outline_3_" x="456" y="309.8" fill="none" stroke="#231F20" stroke-width="2" stroke-miterlimit="10" width="62.9" height="71.2"></rect>
<circle id="circle_x5F_1" fill="none" stroke="#FFDD0C" stroke-width="2" stroke-miterlimit="10" cx="466.6" cy="321.2" r="3.7"></circle>
<circle id="circle_x5F_2" fill="none" stroke="#FFDD0C" stroke-width="2" stroke-miterlimit="10" cx="466.6" cy="345.4" r="3.7"></circle>
<circle id="circle_x5F_3" fill="none" stroke="#FFDD0C" stroke-width="2" stroke-miterlimit="10" cx="466.6" cy="369.7" r="3.7"></circle>
<path id="base_1_" fill="none" stroke="#231F20" stroke-width="2" stroke-miterlimit="10" d="M366.9,315.2v61.4
		c0,3.7,13.2,6.6,29.6,6.6c16.3,0,29.6-3,29.6-6.6v-61.4"></path>
<ellipse id="top" fill="none" stroke="#231F20" stroke-width="2" stroke-miterlimit="10" cx="396.4" cy="315.2" rx="29.6" ry="6.6"></ellipse>
<circle fill="#000" cx="423.6" cy="282.6" r="2"></circle>
<circle fill="#000" cx="412.1" cy="282.6" r="2"></circle>
<circle fill="#000" cx="469.9" cy="282.9" r="2"></circle>
<circle fill="#000" cx="458.4" cy="282.9" r="2"></circle>
<circle fill="#000" cx="493.1" cy="283" r="2"></circle>
<circle fill="#000" cx="481.5" cy="283" r="2"></circle>
<circle fill="#000" cx="516.2" cy="283" r="2"></circle>
<circle fill="#000" cx="504.6" cy="283" r="2"></circle>
<circle fill="#000" cx="539.3" cy="283.1" r="2"></circle>
<circle fill="#000" cx="550.9" cy="283.1" r="2"></circle>
<circle fill="#000" cx="527.8" cy="283.1" r="2"></circle>
<circle fill="#000" cx="400.5" cy="282.6" r="2"></circle>
<circle fill="#000" cx="388.9" cy="282.6" r="2"></circle>
<circle fill="#000" cx="377.4" cy="282.6" r="2"></circle>
<circle fill="#000" cx="365.8" cy="282.6" r="2"></circle>
<circle fill="#000" cx="354.2" cy="282.6" r="2"></circle>
<circle fill="#000" cx="342.7" cy="282.6" r="2"></circle>
<circle fill="#000" cx="331.1" cy="282.6" r="2"></circle>
<path id="lock-bolt" fill="#FFFFFF" stroke="#000000" stroke-width="2" stroke-miterlimit="10" d="M436.3,277.7V274
		c0-2.6,2.1-4.7,4.7-4.7c2.6,0,4.7,2.1,4.7,4.7v3.7"></path>
<rect id="lock-frame" x="433.8" y="277.7" fill="#FFFFFF" stroke="#FFDD0C" stroke-width="2" stroke-miterlimit="10" width="14.5" height="10.7"></rect>
<path id="arrow-right" fill="none" stroke="#FFDD0C" stroke-width="2" stroke-miterlimit="10" d="M568.8,327.3l-22.6,7.5l0.1-23.8
		l6.4,4.6l0,0c17.2-23.9,14-56.3-6.3-76.4l8.5-8c24.1,24.1,27.8,62.8,7.2,91.3L568.8,327.3z"></path>
<path id="arrow-left" fill="none" stroke="#FFDD0C" stroke-width="2" stroke-miterlimit="10" d="M313.2,238.8l22.6-7.5l-0.1,23.8
		l-6.4-4.6l0,0c-17.2,23.9-14,56.3,6.3,76.4l-8.5,8c-24.1-24.1-27.8-62.8-7.2-91.3L313.2,238.8z"></path>
<g>
<g>
<path fill="#231F20" d="M373.7,246.9v4.4h-1.6v-11.5h4.7c0.2,0,0.4,0,0.6,0.1s0.5,0.1,0.7,0.3s0.5,0.3,0.7,0.5s0.4,0.4,0.6,0.7
				c0.2,0.3,0.3,0.6,0.4,0.9s0.2,0.7,0.2,1.1c0,0.4-0.1,0.8-0.2,1.1s-0.3,0.6-0.4,0.9s-0.4,0.5-0.6,0.7s-0.5,0.3-0.7,0.5
				c-0.2,0.1-0.5,0.2-0.7,0.3s-0.4,0.1-0.6,0.1H373.7z M376.9,245.4c0.2,0,0.4,0,0.6-0.1s0.4-0.2,0.5-0.4c0.2-0.2,0.3-0.4,0.4-0.6
				c0.1-0.3,0.2-0.6,0.2-0.9s-0.1-0.6-0.2-0.9s-0.3-0.5-0.4-0.6c-0.2-0.2-0.4-0.3-0.5-0.4s-0.4-0.1-0.6-0.1h-3.2v4.1H376.9z"></path>
<path fill="#231F20" d="M381.2,246.8c0-0.2,0-0.4,0.1-0.7s0.1-0.5,0.2-0.8s0.2-0.6,0.4-0.8s0.4-0.5,0.6-0.7s0.5-0.4,0.9-0.5
				s0.8-0.2,1.2-0.2c0.5,0,0.9,0.1,1.2,0.2s0.7,0.3,0.9,0.5s0.5,0.5,0.6,0.7s0.3,0.6,0.4,0.8s0.2,0.5,0.2,0.8s0.1,0.5,0.1,0.7v0.8
				c0,0.2,0,0.4-0.1,0.7s-0.1,0.5-0.2,0.8s-0.2,0.6-0.4,0.8c-0.2,0.3-0.4,0.5-0.6,0.7s-0.6,0.4-0.9,0.5c-0.4,0.1-0.8,0.2-1.2,0.2
				c-0.5,0-0.9-0.1-1.2-0.2s-0.7-0.3-0.9-0.5s-0.5-0.5-0.6-0.7s-0.3-0.6-0.4-0.8s-0.2-0.5-0.2-0.8s-0.1-0.5-0.1-0.7V246.8z
				 M386.4,246.8c0-0.2,0-0.5-0.1-0.8c-0.1-0.3-0.1-0.5-0.3-0.8s-0.3-0.4-0.6-0.6s-0.5-0.2-0.9-0.2c-0.4,0-0.7,0.1-0.9,0.2
				s-0.4,0.3-0.6,0.6s-0.2,0.5-0.3,0.8c-0.1,0.3-0.1,0.5-0.1,0.8v0.8c0,0.2,0,0.5,0.1,0.7s0.1,0.5,0.3,0.8s0.3,0.4,0.6,0.6
				s0.5,0.2,0.9,0.2c0.4,0,0.7-0.1,0.9-0.2s0.4-0.3,0.6-0.6c0.1-0.2,0.2-0.5,0.3-0.8s0.1-0.5,0.1-0.8V246.8z"></path>
<path fill="#231F20" d="M395.2,245.8h-0.2l-1.9,5.5h-1.2l-2.5-8.2h1.6l1.5,5.7h0.2l1.9-5.7h1l1.9,5.7h0.2l1.5-5.7h1.6l-2.5,8.2
				h-1.2L395.2,245.8z"></path>
<path fill="#231F20" d="M405.6,250c0.2,0,0.5,0,0.6-0.1s0.4-0.1,0.5-0.1s0.3-0.1,0.4-0.2c0.1-0.1,0.3-0.2,0.4-0.3l1.1,1
				c-0.2,0.2-0.4,0.4-0.6,0.5s-0.4,0.3-0.7,0.4s-0.5,0.2-0.8,0.2c-0.3,0.1-0.6,0.1-0.9,0.1c-0.6,0-1.1-0.1-1.6-0.3s-0.8-0.5-1.1-0.9
				s-0.5-0.8-0.7-1.3c-0.1-0.5-0.2-1.1-0.2-1.6c0-0.6,0.1-1.1,0.2-1.6s0.4-1,0.6-1.3s0.6-0.7,1.1-0.9s0.9-0.3,1.5-0.3
				s1.1,0.1,1.5,0.3s0.8,0.5,1.1,0.9s0.5,0.8,0.6,1.3s0.2,1.1,0.2,1.6v0.6h-5.2c0,0.3,0.1,0.6,0.2,0.8s0.2,0.5,0.4,0.7
				s0.4,0.3,0.6,0.5S405.3,250,405.6,250z M405.5,244.5c-0.3,0-0.5,0.1-0.7,0.2s-0.4,0.2-0.5,0.4s-0.3,0.4-0.4,0.6s-0.1,0.5-0.2,0.7
				h3.5c0-0.3-0.1-0.5-0.2-0.7s-0.2-0.4-0.3-0.6s-0.3-0.3-0.5-0.4S405.7,244.5,405.5,244.5z"></path>
<path fill="#231F20" d="M411.1,243.1h1.5v0.8h0.1c0.1-0.2,0.3-0.3,0.5-0.4c0.2-0.1,0.3-0.2,0.6-0.3c0.2-0.1,0.5-0.1,0.7-0.1
				c0.3,0,0.6,0,0.9,0.1c0.3,0.1,0.5,0.1,0.7,0.2c0.2,0.1,0.4,0.2,0.6,0.3l-0.9,1.2c-0.1-0.1-0.2-0.1-0.4-0.2
				c-0.1-0.1-0.3-0.1-0.4-0.1s-0.4-0.1-0.6-0.1c-0.2,0-0.4,0-0.6,0.1c-0.2,0.1-0.3,0.1-0.5,0.2s-0.3,0.2-0.4,0.3s-0.2,0.2-0.2,0.3
				v5.9h-1.5V243.1z"></path>
<path fill="#231F20" d="M426.4,239.9c0.2,0,0.5,0,0.7,0.1c0.3,0,0.5,0.1,0.8,0.2c0.3,0.1,0.5,0.2,0.7,0.4s0.4,0.4,0.6,0.6
				s0.3,0.5,0.4,0.8s0.2,0.7,0.2,1c0,0.2,0,0.4-0.1,0.6c0,0.2-0.1,0.4-0.2,0.5s-0.1,0.3-0.2,0.4s-0.2,0.2-0.3,0.3
				c-0.2,0.2-0.5,0.4-0.7,0.6v0.1c0.2,0.1,0.3,0.2,0.5,0.3s0.4,0.3,0.6,0.5s0.3,0.5,0.4,0.8s0.2,0.7,0.2,1.1c0,0.6-0.1,1-0.3,1.4
				s-0.5,0.7-0.9,1s-0.7,0.5-1.2,0.6s-0.8,0.2-1.2,0.2h-4.4v-11.5H426.4z M426.3,244.8c0.2,0,0.5,0,0.7-0.1c0.2-0.1,0.5-0.1,0.6-0.3
				c0.2-0.1,0.3-0.3,0.4-0.5s0.2-0.5,0.2-0.8s-0.1-0.6-0.2-0.8s-0.3-0.4-0.5-0.5s-0.4-0.2-0.6-0.3c-0.2-0.1-0.4-0.1-0.6-0.1h-2.7
				v3.4H426.3z M426.5,249.8c0.1,0,0.2,0,0.3,0s0.3-0.1,0.4-0.1s0.3-0.1,0.4-0.2c0.1-0.1,0.3-0.2,0.4-0.3c0.1-0.1,0.2-0.3,0.3-0.5
				s0.1-0.4,0.1-0.6c0-0.4-0.1-0.7-0.2-0.9s-0.3-0.4-0.5-0.5c-0.2-0.1-0.4-0.2-0.6-0.3s-0.4-0.1-0.6-0.1h-2.9v3.6H426.5z"></path>
<path fill="#231F20" d="M433.9,251.3h-1.6v-11.5h1.6V251.3z"></path>
<path fill="#231F20" d="M445.4,250.5L445.4,250.5c-0.2,0.2-0.4,0.3-0.6,0.4c-0.2,0.1-0.4,0.2-0.6,0.3c-0.2,0.1-0.5,0.1-0.8,0.1
				c-0.4,0-0.8-0.1-1.2-0.3s-0.7-0.4-0.9-0.7s-0.5-0.6-0.6-1s-0.2-0.8-0.2-1.2v-2.2c0-0.4,0.1-0.8,0.2-1.2s0.3-0.7,0.6-1
				s0.5-0.5,0.9-0.7c0.3-0.2,0.7-0.2,1.2-0.2c0.3,0,0.6,0,0.8,0.1s0.5,0.2,0.6,0.3c0.2,0.1,0.4,0.2,0.6,0.4h0.1v-0.7h1.5v7.8
				c0,0.6-0.1,1-0.2,1.5c-0.2,0.4-0.4,0.8-0.7,1.2s-0.7,0.6-1.1,0.7s-1,0.3-1.5,0.3c-0.5,0-0.9-0.1-1.3-0.2s-0.6-0.3-0.9-0.4
				c-0.3-0.2-0.5-0.4-0.6-0.6l1.1-1c0.1,0.1,0.2,0.3,0.4,0.4c0.1,0.1,0.3,0.2,0.5,0.3s0.5,0.1,0.7,0.1c0.3,0,0.6-0.1,0.9-0.2
				c0.3-0.1,0.5-0.3,0.7-0.5s0.3-0.4,0.4-0.7c0.1-0.3,0.1-0.6,0.1-0.9V250.5z M443.5,244.5c-0.3,0-0.5,0.1-0.7,0.2s-0.4,0.2-0.5,0.4
				s-0.2,0.3-0.3,0.5c-0.1,0.2-0.1,0.4-0.1,0.5v2.2c0,0.2,0,0.4,0.1,0.6s0.1,0.4,0.3,0.5s0.3,0.3,0.5,0.4s0.5,0.2,0.8,0.2
				c0.4,0,0.7-0.1,0.9-0.2c0.2-0.1,0.4-0.2,0.6-0.4c0.2-0.2,0.3-0.4,0.4-0.6v-2.7c0-0.1,0-0.3-0.1-0.5s-0.2-0.4-0.3-0.5
				s-0.3-0.3-0.6-0.4S443.9,244.5,443.5,244.5z"></path>
<path fill="#231F20" d="M451.9,243.1c0.6,0,1.1,0.1,1.5,0.2s0.8,0.3,1.1,0.6s0.5,0.6,0.6,0.9s0.2,0.7,0.2,1.1v5.4h-1.6v-0.6h-0.1
				c-0.2,0.1-0.3,0.2-0.5,0.3c-0.1,0.1-0.3,0.2-0.5,0.2s-0.4,0.1-0.5,0.1s-0.4,0-0.7,0c-0.4,0-0.7,0-1.1-0.1
				c-0.3-0.1-0.6-0.2-0.8-0.4c-0.2-0.2-0.4-0.5-0.6-0.8c-0.1-0.3-0.2-0.7-0.2-1.1c0-0.4,0.1-0.8,0.2-1.1s0.4-0.5,0.6-0.7
				s0.6-0.3,1-0.4s0.8-0.1,1.2-0.1c0.3,0,0.5,0,0.7,0c0.2,0,0.3,0,0.5,0c0.1,0,0.3,0,0.4,0c0.1,0,0.3,0,0.4-0.1V246
				c0-0.2,0-0.4-0.1-0.5s-0.2-0.3-0.3-0.5s-0.3-0.3-0.5-0.4s-0.5-0.1-0.9-0.1c-0.2,0-0.4,0-0.5,0s-0.3,0.1-0.4,0.1
				c-0.1,0-0.2,0.1-0.3,0.2c-0.1,0.1-0.2,0.1-0.3,0.2l-1.2-0.8c0.1-0.2,0.3-0.3,0.5-0.5s0.4-0.3,0.6-0.4c0.2-0.1,0.5-0.2,0.8-0.2
				C451.3,243.1,451.6,243.1,451.9,243.1z M453.7,247.7c-0.3,0-0.6,0.1-0.8,0.1s-0.5,0-0.9,0c-0.3,0-0.6,0-0.9,0.1s-0.4,0.2-0.5,0.3
				s-0.2,0.2-0.3,0.4s-0.1,0.3-0.1,0.4s0,0.2,0,0.4c0,0.1,0.1,0.3,0.2,0.4c0.1,0.1,0.2,0.2,0.4,0.3c0.2,0.1,0.5,0.1,0.8,0.1
				c0.4,0,0.7,0,1-0.1c0.3-0.1,0.5-0.2,0.6-0.3s0.3-0.3,0.3-0.4s0.1-0.3,0.1-0.4V247.7z"></path>
<path fill="#231F20" d="M461,244.6h-1.3v4.7c0,0.1,0,0.1,0,0.2s0,0.1,0.1,0.2s0.1,0.1,0.1,0.1s0.1,0.1,0.2,0.1h0.9v1.5H460
				c-0.1,0-0.2,0-0.3,0s-0.2,0-0.4-0.1s-0.3-0.1-0.4-0.2s-0.3-0.2-0.4-0.4s-0.2-0.3-0.3-0.6s-0.1-0.5-0.1-0.9v-4.7h-0.8v-1.4h0.8
				v-2.2h1.5v2.2h1.3V244.6z"></path>
<path fill="#231F20" d="M466.6,250c0.2,0,0.5,0,0.6-0.1s0.4-0.1,0.5-0.1s0.3-0.1,0.4-0.2c0.1-0.1,0.3-0.2,0.4-0.3l1.1,1
				c-0.2,0.2-0.4,0.4-0.6,0.5s-0.4,0.3-0.7,0.4s-0.5,0.2-0.8,0.2c-0.3,0.1-0.6,0.1-0.9,0.1c-0.6,0-1.1-0.1-1.6-0.3s-0.8-0.5-1.1-0.9
				s-0.5-0.8-0.7-1.3c-0.1-0.5-0.2-1.1-0.2-1.6c0-0.6,0.1-1.1,0.2-1.6s0.4-1,0.6-1.3s0.6-0.7,1.1-0.9s0.9-0.3,1.5-0.3
				s1.1,0.1,1.5,0.3s0.8,0.5,1.1,0.9s0.5,0.8,0.6,1.3s0.2,1.1,0.2,1.6v0.6h-5.2c0,0.3,0.1,0.6,0.2,0.8s0.2,0.5,0.4,0.7
				s0.4,0.3,0.6,0.5S466.3,250,466.6,250z M466.4,244.5c-0.3,0-0.5,0.1-0.7,0.2s-0.4,0.2-0.5,0.4s-0.3,0.4-0.4,0.6s-0.1,0.5-0.2,0.7
				h3.5c0-0.3-0.1-0.5-0.2-0.7s-0.2-0.4-0.3-0.6s-0.3-0.3-0.5-0.4S466.7,244.5,466.4,244.5z"></path>
<path fill="#231F20" d="M477.2,245.8H477l-1.9,5.5h-1.2l-2.5-8.2h1.6l1.5,5.7h0.2l1.9-5.7h1l1.9,5.7h0.2l1.5-5.7h1.6l-2.5,8.2
				h-1.2L477.2,245.8z"></path>
<path fill="#231F20" d="M486.9,243.1c0.6,0,1.1,0.1,1.5,0.2s0.8,0.3,1.1,0.6s0.5,0.6,0.6,0.9s0.2,0.7,0.2,1.1v5.4h-1.6v-0.6h-0.1
				c-0.2,0.1-0.3,0.2-0.5,0.3c-0.1,0.1-0.3,0.2-0.5,0.2s-0.4,0.1-0.5,0.1s-0.4,0-0.7,0c-0.4,0-0.7,0-1.1-0.1
				c-0.3-0.1-0.6-0.2-0.8-0.4c-0.2-0.2-0.4-0.5-0.6-0.8c-0.1-0.3-0.2-0.7-0.2-1.1c0-0.4,0.1-0.8,0.2-1.1s0.4-0.5,0.6-0.7
				s0.6-0.3,1-0.4s0.8-0.1,1.2-0.1c0.3,0,0.5,0,0.7,0c0.2,0,0.3,0,0.5,0c0.1,0,0.3,0,0.4,0c0.1,0,0.3,0,0.4-0.1V246
				c0-0.2,0-0.4-0.1-0.5s-0.2-0.3-0.3-0.5s-0.3-0.3-0.5-0.4s-0.5-0.1-0.9-0.1c-0.2,0-0.4,0-0.5,0s-0.3,0.1-0.4,0.1
				c-0.1,0-0.2,0.1-0.3,0.2c-0.1,0.1-0.2,0.1-0.3,0.2l-1.2-0.8c0.1-0.2,0.3-0.3,0.5-0.5s0.4-0.3,0.6-0.4c0.2-0.1,0.5-0.2,0.8-0.2
				S486.5,243.1,486.9,243.1z M488.7,247.7c-0.3,0-0.6,0.1-0.8,0.1s-0.5,0-0.9,0c-0.3,0-0.6,0-0.9,0.1s-0.4,0.2-0.5,0.3
				s-0.2,0.2-0.3,0.4s-0.1,0.3-0.1,0.4s0,0.2,0,0.4c0,0.1,0.1,0.3,0.2,0.4c0.1,0.1,0.2,0.2,0.4,0.3c0.2,0.1,0.5,0.1,0.8,0.1
				c0.4,0,0.7,0,1-0.1c0.3-0.1,0.5-0.2,0.6-0.3s0.3-0.3,0.3-0.4s0.1-0.3,0.1-0.4V247.7z"></path>
<path fill="#231F20" d="M492.9,253.1h0.6c0.1,0,0.1,0,0.2,0s0.2-0.1,0.3-0.1c0.1-0.1,0.2-0.2,0.3-0.3c0.1-0.1,0.2-0.3,0.2-0.5
				l0.4-1.2l-2.9-7.8h1.7l1.9,5.8h0.2l2-5.8h1.6l-3.5,9.2c-0.1,0.3-0.2,0.5-0.3,0.8s-0.3,0.5-0.5,0.7s-0.4,0.4-0.7,0.5
				s-0.6,0.2-1,0.2h-0.6V253.1z"></path>
<path fill="#231F20" d="M504.2,243.1c0.5,0,0.9,0.1,1.3,0.2s0.7,0.2,1,0.3c0.3,0.2,0.6,0.3,0.9,0.5l-1,1.2
				c-0.2-0.1-0.4-0.2-0.6-0.4c-0.2-0.1-0.4-0.2-0.7-0.2s-0.6-0.1-0.9-0.1c-0.5,0-1,0.1-1.3,0.3s-0.4,0.4-0.4,0.7
				c0,0.1,0,0.2,0.1,0.4s0.1,0.2,0.3,0.3s0.3,0.2,0.5,0.2s0.5,0.1,0.8,0.1c0.5,0,0.9,0.1,1.3,0.2c0.4,0.1,0.7,0.2,1,0.4
				c0.3,0.2,0.5,0.4,0.6,0.7c0.1,0.3,0.2,0.6,0.2,1c0,0.4-0.1,0.7-0.2,1s-0.3,0.6-0.6,0.8c-0.3,0.2-0.7,0.4-1.1,0.6
				c-0.5,0.1-1,0.2-1.6,0.2c-0.6,0-1.1-0.1-1.5-0.2s-0.8-0.3-1.1-0.5c-0.3-0.2-0.6-0.4-0.8-0.7l1.1-1.1c0.2,0.2,0.4,0.4,0.6,0.5
				c0.2,0.1,0.4,0.2,0.7,0.3c0.3,0.1,0.6,0.2,1,0.2c0.4,0,0.7,0,0.9-0.1s0.5-0.1,0.6-0.2s0.3-0.2,0.3-0.3s0.1-0.2,0.1-0.4
				c0-0.2,0-0.3-0.1-0.4s-0.2-0.2-0.4-0.3c-0.2-0.1-0.4-0.1-0.6-0.2s-0.5-0.1-0.8-0.1c-0.3,0-0.7-0.1-1-0.2c-0.4-0.1-0.7-0.2-1-0.4
				s-0.5-0.4-0.7-0.7c-0.2-0.3-0.3-0.7-0.3-1.2c0-0.4,0.1-0.8,0.3-1.1s0.4-0.6,0.7-0.8c0.3-0.2,0.6-0.4,1-0.5
				S503.8,243.1,504.2,243.1z"></path>
		</g>
	</g>
<g id="laptop_1_">
<g>
<g>
<path fill="#231F20" d="M863.9,165.9v80.7H718.1v-80.7H863.9 M865.9,163.9H716.1v84.7h149.9V163.9L865.9,163.9z"></path>
			</g>
		</g>
<g>
<g>
<path fill="#231F20" d="M857.6,172.2v69.3H724.4v-69.3H857.6 M859.6,170.2H722.4v73.3h137.2V170.2L859.6,170.2z"></path>
			</g>
		</g>
<g>
<path fill="#231F20" d="M865.2,248.6l16.5,13.9l0,4.6H700.4l0-4.6l16.5-13.9H865.2 M865.9,246.6H716.1l-17.7,15l0,7.5h185.3
				l0-7.5L865.9,246.6L865.9,246.6z"></path>
		</g>
<polyline fill="none" stroke="#231F20" stroke-width="2" stroke-miterlimit="10" points="700.1,261.8 784.3,261.8 784.3,262.7
			795.5,262.7 795.5,261.8 881.9,261.8 		"></polyline>
<line fill="#FFFFFF" stroke="#231F20" stroke-miterlimit="10" x1="787.9" y1="168" x2="789.9" y2="168"></line>
<rect x="745.6" y="205.4" fill="none" stroke="#231F20" stroke-width="2" stroke-miterlimit="10" width="20.9" height="29.7"></rect>
<rect x="780.5" y="195.8" fill="none" stroke="#FFDD0C" stroke-width="2" stroke-miterlimit="10" width="20.9" height="39.3"></rect>
<rect x="815.3" y="186.3" fill="none" stroke="#231F20" stroke-width="2" stroke-miterlimit="10" width="20.9" height="48.8"></rect>
<polyline fill="none" stroke="#231F20" stroke-width="2" stroke-miterlimit="10" points="734.1,177.4 734.1,235.1 847,235.1 		"></polyline>
	</g>
<g id="phone">
<g>
<g>
<path fill="#231F20" d="M767.6,75v62.8h-39.9V75H767.6 M769.6,73h-43.9v66.8h43.9V73L769.6,73z"></path>
			</g>
<line fill="none" stroke="#231F20" stroke-width="2" stroke-miterlimit="10" x1="759.5" y1="83.5" x2="759.5" y2="132.3"></line>
<line fill="none" stroke="#FFDD0C" stroke-width="2" stroke-miterlimit="10" x1="735.5" y1="111.2" x2="735.5" y2="132.3"></line>
<line fill="none" stroke="#231F20" stroke-width="2" stroke-miterlimit="10" x1="743.5" y1="94.9" x2="743.5" y2="132.3"></line>
<line fill="none" stroke="#FFDD0C" stroke-width="2" stroke-miterlimit="10" x1="751.5" y1="103" x2="751.5" y2="132.8"></line>
<line fill="none" stroke="#231F20" stroke-width="2" stroke-miterlimit="10" x1="731.1" y1="132" x2="764.7" y2="132"></line>
		</g>
<g>
<g>
<path fill="#231F20" d="M767.6,139.8v6.8h-39.9v-6.8H767.6 M769.6,137.8h-43.9v10.8h43.9V137.8L769.6,137.8z"></path>
			</g>
		</g>
<g>
<g>
<path fill="#231F20" d="M767.6,64.6V73h-39.9v-8.4H767.6 M769.6,62.6h-43.9V75h43.9V62.6L769.6,62.6z"></path>
			</g>
		</g>
<line fill="#FFFFFF" stroke="#231F20" stroke-width="2" stroke-miterlimit="10" x1="744.6" y1="68.7" x2="750.7" y2="68.7"></line>
<line fill="#FFFFFF" stroke="#231F20" stroke-width="2" stroke-miterlimit="10" x1="744.6" y1="143.1" x2="750.7" y2="143.1"></line>
	</g>
<g id="tablet">
<g>
<g>
<path fill="#231F20" d="M851.2,49.9V135h-63.9V49.9H851.2 M853.2,47.9h-67.9V137h67.9V47.9L853.2,47.9z"></path>
			</g>
<line fill="none" stroke="#FFDD0C" stroke-width="2" stroke-miterlimit="10" x1="818.7" y1="125.1" x2="834.6" y2="125.1"></line>
<line fill="none" stroke="#FFDD0C" stroke-width="2" stroke-miterlimit="10" x1="818.7" y1="118.7" x2="842.8" y2="118.7"></line>
<line fill="none" stroke="#FFDD0C" stroke-width="2" stroke-miterlimit="10" x1="818.7" y1="86.7" x2="837.8" y2="86.7"></line>
<line fill="none" stroke="#FFDD0C" stroke-width="2" stroke-miterlimit="10" x1="818" y1="80.1" x2="842.1" y2="80.1"></line>
<line fill="none" stroke="#FFDD0C" stroke-width="2" stroke-miterlimit="10" x1="817.9" y1="74" x2="827.6" y2="74"></line>
<line fill="none" stroke="#231F20" stroke-width="2" stroke-miterlimit="10" x1="819.3" y1="61.1" x2="803.4" y2="61.1"></line>
<line fill="none" stroke="#231F20" stroke-width="2" stroke-miterlimit="10" x1="819.3" y1="67.5" x2="795.2" y2="67.5"></line>
<line fill="none" stroke="#231F20" stroke-width="2" stroke-miterlimit="10" x1="818.9" y1="54.9" x2="818.9" y2="131.1"></line>
<line fill="none" stroke="#231F20" stroke-width="2" stroke-miterlimit="10" x1="819.3" y1="93.1" x2="795.2" y2="93.1"></line>
<line fill="none" stroke="#231F20" stroke-width="2" stroke-miterlimit="10" x1="819.3" y1="99.5" x2="803.4" y2="99.5"></line>
<line fill="none" stroke="#231F20" stroke-width="2" stroke-miterlimit="10" x1="819.3" y1="105.9" x2="799.8" y2="105.9"></line>
<line fill="none" stroke="#231F20" stroke-width="2" stroke-miterlimit="10" x1="819.3" y1="112.3" x2="809.5" y2="112.3"></line>
		</g>
<g>
<g>
<path fill="#231F20" d="M851.2,137v10.2h-63.9V137H851.2 M853.2,135h-67.9v14.2h67.9V135L853.2,135z"></path>
			</g>
		</g>
<g>
<g>
<path fill="#231F20" d="M851.2,38.3v9.5h-63.9v-9.5H851.2 M853.2,36.3h-67.9v13.5h67.9V36.3L853.2,36.3z"></path>
			</g>
		</g>
<line fill="#FFFFFF" stroke="#231F20" stroke-width="2" stroke-miterlimit="10" x1="815.9" y1="141.9" x2="822" y2="141.9"></line>
	</g>
<g id="dashboard">
<g>
<path fill="#231F20" d="M529,101.7v95.2H353v-95.2H529 M531,99.7H351v99.2h180V99.7L531,99.7z"></path>
		</g>
<g>
<path fill="#231F20" d="M476.6,107.5v37.4H405v-37.4H476.6 M478.6,105.5H403v41.4h75.6V105.5L478.6,105.5z"></path>
		</g>
<rect x="418.1" y="125" fill="none" stroke="#231F20" stroke-width="2" stroke-miterlimit="10" width="10.2" height="12.6"></rect>
<rect x="435.5" y="120.8" fill="none" stroke="#FFDD0C" stroke-width="2" stroke-miterlimit="10" width="10.9" height="16.7"></rect>
<rect x="453.8" y="115.8" fill="none" stroke="#231F20" stroke-width="2" stroke-miterlimit="10" width="11.7" height="21.7"></rect>
<polyline fill="none" stroke="#231F20" stroke-width="2" stroke-miterlimit="10" points="411.8,113.3 411.8,137.5 470.7,137.5
			"></polyline>
<g>
<path fill="#231F20" d="M396.7,107.5V145h-37.5v-37.5H396.7 M398.7,105.5h-41.5V147h41.5V105.5L398.7,105.5z"></path>
		</g>
<g>
<path fill="#231F20" d="M522.4,107.5V145h-37.5v-37.5H522.4 M524.4,105.5h-41.5V147h41.5V105.5L524.4,105.5z"></path>
		</g>
<g>
<path fill="#231F20" d="M488.4,152.8v37.4H385.9v-37.4H488.4 M490.4,150.8H383.9v41.4h106.5V150.8L490.4,150.8z"></path>
		</g>
<line fill="none" stroke="#231F20" stroke-width="2" stroke-miterlimit="10" x1="363.8" y1="114.1" x2="392.2" y2="114.1"></line>
<line fill="none" stroke="#FFDD0C" stroke-width="2" stroke-miterlimit="10" x1="363.7" y1="122.1" x2="392.2" y2="122.1"></line>
<line fill="none" stroke="#231F20" stroke-width="2" stroke-miterlimit="10" x1="363.7" y1="130.1" x2="392.2" y2="130.1"></line>
<line fill="none" stroke="#FFDD0C" stroke-width="2" stroke-miterlimit="10" x1="363.7" y1="138.1" x2="392.2" y2="138.1"></line>
<path fill="none" stroke="#FFDD0C" stroke-width="2" stroke-miterlimit="10" d="M394.7,177.4c2.1,4.1,4,5.3,7,5.3
			c6.4-0.1,8.1-9.3,16.2-11.6c8.3-2.4,11.9,6.6,20.6,4.9c7.4-1.5,6.6-10.3,13.8-12.2c7.5-2,11.4,5.8,19,3.4c4.3-1.3,7.3-5,9-7.7"></path>
<g>
<path fill="#231F20" d="M522.4,152.8v37.5h-26.1v-37.5H522.4 M524.4,150.8h-30.1v41.5h30.1V150.8L524.4,150.8z"></path>
		</g>
<line fill="none" stroke="#FFDD0C" stroke-width="2" stroke-miterlimit="10" x1="509" y1="183.8" x2="518" y2="183.8"></line>
<line fill="none" stroke="#FFDD0C" stroke-width="2" stroke-miterlimit="10" x1="509" y1="164.2" x2="517.3" y2="164.2"></line>
<line fill="none" stroke="#FFDD0C" stroke-width="2" stroke-miterlimit="10" x1="509.2" y1="169.1" x2="514.5" y2="169.1"></line>
<line fill="none" stroke="#231F20" stroke-width="2" stroke-miterlimit="10" x1="509.6" y1="159.3" x2="503.6" y2="159.3"></line>
<line fill="none" stroke="#231F20" stroke-width="2" stroke-miterlimit="10" x1="509.2" y1="154.6" x2="509.2" y2="188.3"></line>
<line fill="none" stroke="#231F20" stroke-width="2" stroke-miterlimit="10" x1="509.6" y1="174" x2="500.5" y2="174"></line>
<line fill="none" stroke="#231F20" stroke-width="2" stroke-miterlimit="10" x1="509.6" y1="178.9" x2="502.3" y2="178.9"></line>
<path fill="none" stroke="#FFDD0C" stroke-width="2" stroke-miterlimit="10" d="M506,123.7l9.4,0.1c-0.8-4.8-4.6-8.6-9.4-9.5
			L506,123.7z"></path>
<path fill="none" stroke="#231F20" stroke-width="2" stroke-miterlimit="10" d="M515.6,125.8H504v-11.6c-6.4,0-11.6,5.2-11.6,11.6
			s5.2,11.6,11.6,11.6S515.6,132.2,515.6,125.8z"></path>
<g>
<path fill="#231F20" d="M378.1,152.8v37.5h-19v-37.5H378.1 M380.1,150.8h-23v41.5h23V150.8L380.1,150.8z"></path>
		</g>
<line fill="none" stroke="#FFDD0C" stroke-width="2" stroke-miterlimit="10" x1="362.3" y1="173.5" x2="362.3" y2="187.9"></line>
<line fill="none" stroke="#FFDD0C" stroke-width="2" stroke-miterlimit="10" x1="370.6" y1="169.1" x2="370.6" y2="187.7"></line>
<line fill="none" stroke="#231F20" stroke-width="2" stroke-miterlimit="10" x1="366.4" y1="164.8" x2="366.4" y2="187.7"></line>
<polyline fill="none" stroke="#231F20" stroke-width="2" stroke-miterlimit="10" points="361.3,186.9 374.8,186.9 374.8,156.4
			"></polyline>
	</g>
<path id="cloud" fill="none" stroke="#000000" stroke-width="2" stroke-miterlimit="10" d="M578,163.4c3.2-5.8,5.1-12.4,5.1-19.5
		c0-18.1-12-33.5-28.5-38.5C553.1,77.8,530.4,56,502.5,56c-9.3,0-18,2.4-25.5,6.7c-11.1-14.9-28.9-24.6-49-24.6
		c-27.2,0-50.2,17.7-58.1,42.2c-2.4-0.4-4.9-0.6-7.5-0.6c-24.6,0-44.6,20-44.6,44.6c0,1.7,0.1,3.4,0.3,5c-15.9,6.8-27,22.6-27,41
		c0,24.6,20,44.6,44.6,44.6c24.6,0,212,0,227.5,0s27.9-12.5,27.9-27.9C591,177,585.8,168.3,578,163.4z"></path>
<g>
<g>
<path fill="#231F20" d="M382.6,17.7v4.4h-1.6V10.7h4.7c0.2,0,0.4,0,0.6,0.1s0.5,0.1,0.7,0.3s0.5,0.3,0.7,0.5s0.4,0.4,0.6,0.7
				c0.2,0.3,0.3,0.6,0.4,0.9s0.2,0.7,0.2,1.1c0,0.4-0.1,0.8-0.2,1.1s-0.3,0.6-0.4,0.9s-0.4,0.5-0.6,0.7s-0.5,0.3-0.7,0.5
				c-0.2,0.1-0.5,0.2-0.7,0.3s-0.4,0.1-0.6,0.1H382.6z M385.8,16.2c0.2,0,0.4,0,0.6-0.1s0.4-0.2,0.5-0.4c0.2-0.2,0.3-0.4,0.4-0.6
				c0.1-0.3,0.2-0.6,0.2-0.9s-0.1-0.6-0.2-0.9s-0.3-0.5-0.4-0.6c-0.2-0.2-0.4-0.3-0.5-0.4s-0.4-0.1-0.6-0.1h-3.2v4.1H385.8z"></path>
<path fill="#231F20" d="M390.1,17.6c0-0.2,0-0.4,0.1-0.7s0.1-0.5,0.2-0.8s0.2-0.6,0.4-0.8s0.4-0.5,0.6-0.7s0.5-0.4,0.9-0.5
				s0.8-0.2,1.2-0.2c0.5,0,0.9,0.1,1.2,0.2s0.7,0.3,0.9,0.5s0.5,0.5,0.6,0.7s0.3,0.6,0.4,0.8s0.2,0.5,0.2,0.8s0.1,0.5,0.1,0.7v0.8
				c0,0.2,0,0.4-0.1,0.7s-0.1,0.5-0.2,0.8s-0.2,0.6-0.4,0.8c-0.2,0.3-0.4,0.5-0.6,0.7s-0.6,0.4-0.9,0.5c-0.4,0.1-0.8,0.2-1.2,0.2
				c-0.5,0-0.9-0.1-1.2-0.2s-0.7-0.3-0.9-0.5s-0.5-0.5-0.6-0.7s-0.3-0.6-0.4-0.8s-0.2-0.5-0.2-0.8s-0.1-0.5-0.1-0.7V17.6z
				 M395.3,17.6c0-0.2,0-0.5-0.1-0.8c-0.1-0.3-0.1-0.5-0.3-0.8s-0.3-0.4-0.6-0.6s-0.5-0.2-0.9-0.2c-0.4,0-0.7,0.1-0.9,0.2
				s-0.4,0.3-0.6,0.6s-0.2,0.5-0.3,0.8c-0.1,0.3-0.1,0.5-0.1,0.8v0.8c0,0.2,0,0.5,0.1,0.7s0.1,0.5,0.3,0.8s0.3,0.4,0.6,0.6
				s0.5,0.2,0.9,0.2c0.4,0,0.7-0.1,0.9-0.2s0.4-0.3,0.6-0.6c0.1-0.2,0.2-0.5,0.3-0.8s0.1-0.5,0.1-0.8V17.6z"></path>
<path fill="#231F20" d="M404.2,16.6H404l-1.9,5.5h-1.2l-2.5-8.2h1.6l1.5,5.7h0.2l1.9-5.7h1l1.9,5.7h0.2l1.5-5.7h1.6l-2.5,8.2
				h-1.2L404.2,16.6z"></path>
<path fill="#231F20" d="M414.5,20.8c0.2,0,0.5,0,0.6-0.1s0.4-0.1,0.5-0.1s0.3-0.1,0.4-0.2c0.1-0.1,0.3-0.2,0.4-0.3l1.1,1
				c-0.2,0.2-0.4,0.4-0.6,0.5s-0.4,0.3-0.7,0.4s-0.5,0.2-0.8,0.2c-0.3,0.1-0.6,0.1-0.9,0.1c-0.6,0-1.1-0.1-1.6-0.3s-0.8-0.5-1.1-0.9
				s-0.5-0.8-0.7-1.3c-0.1-0.5-0.2-1.1-0.2-1.6c0-0.6,0.1-1.1,0.2-1.6s0.4-1,0.6-1.3s0.6-0.7,1.1-0.9s0.9-0.3,1.5-0.3
				s1.1,0.1,1.5,0.3s0.8,0.5,1.1,0.9s0.5,0.8,0.6,1.3s0.2,1.1,0.2,1.6v0.6h-5.2c0,0.3,0.1,0.6,0.2,0.8s0.2,0.5,0.4,0.7
				s0.4,0.3,0.6,0.5S414.2,20.8,414.5,20.8z M414.4,15.3c-0.3,0-0.5,0.1-0.7,0.2s-0.4,0.2-0.5,0.4s-0.3,0.4-0.4,0.6
				s-0.1,0.5-0.2,0.7h3.5c0-0.3-0.1-0.5-0.2-0.7s-0.2-0.4-0.3-0.6s-0.3-0.3-0.5-0.4S414.6,15.3,414.4,15.3z"></path>
<path fill="#231F20" d="M420,13.9h1.5v0.8h0.1c0.1-0.2,0.3-0.3,0.5-0.4c0.2-0.1,0.3-0.2,0.6-0.3c0.2-0.1,0.5-0.1,0.7-0.1
				c0.3,0,0.6,0,0.9,0.1c0.3,0.1,0.5,0.1,0.7,0.2c0.2,0.1,0.4,0.2,0.6,0.3l-0.9,1.2c-0.1-0.1-0.2-0.1-0.4-0.2
				c-0.1-0.1-0.3-0.1-0.4-0.1s-0.4-0.1-0.6-0.1c-0.2,0-0.4,0-0.6,0.1c-0.2,0.1-0.3,0.1-0.5,0.2s-0.3,0.2-0.4,0.3s-0.2,0.2-0.2,0.3
				v5.9H420V13.9z"></path>
<path fill="#231F20" d="M435.3,10.7c0.2,0,0.5,0,0.7,0.1c0.3,0,0.5,0.1,0.8,0.2c0.3,0.1,0.5,0.2,0.7,0.4s0.4,0.4,0.6,0.6
				s0.3,0.5,0.4,0.8s0.2,0.7,0.2,1c0,0.2,0,0.4-0.1,0.6c0,0.2-0.1,0.4-0.2,0.5s-0.1,0.3-0.2,0.4s-0.2,0.2-0.3,0.3
				c-0.2,0.2-0.5,0.4-0.7,0.6v0.1c0.2,0.1,0.3,0.2,0.5,0.3s0.4,0.3,0.6,0.5s0.3,0.5,0.4,0.8s0.2,0.7,0.2,1.1c0,0.6-0.1,1-0.3,1.4
				s-0.5,0.7-0.9,1s-0.7,0.5-1.2,0.6s-0.8,0.2-1.2,0.2H431V10.7H435.3z M435.2,15.6c0.2,0,0.5,0,0.7-0.1c0.2-0.1,0.5-0.1,0.6-0.3
				c0.2-0.1,0.3-0.3,0.4-0.5s0.2-0.5,0.2-0.8s-0.1-0.6-0.2-0.8s-0.3-0.4-0.5-0.5s-0.4-0.2-0.6-0.3c-0.2-0.1-0.4-0.1-0.6-0.1h-2.7
				v3.4H435.2z M435.5,20.6c0.1,0,0.2,0,0.3,0s0.3-0.1,0.4-0.1s0.3-0.1,0.4-0.2c0.1-0.1,0.3-0.2,0.4-0.3c0.1-0.1,0.2-0.3,0.3-0.5
				s0.1-0.4,0.1-0.6c0-0.4-0.1-0.7-0.2-0.9s-0.3-0.4-0.5-0.5c-0.2-0.1-0.4-0.2-0.6-0.3s-0.4-0.1-0.6-0.1h-2.9v3.6H435.5z"></path>
<path fill="#231F20" d="M442.8,22.1h-1.6V10.7h1.6V22.1z"></path>
<path fill="#231F20" d="M452.6,13.9c0.5,0,0.9,0.1,1.3,0.2s0.7,0.2,1,0.3c0.3,0.2,0.6,0.3,0.9,0.5l-1,1.2
				c-0.2-0.1-0.4-0.2-0.6-0.4c-0.2-0.1-0.4-0.2-0.7-0.2s-0.6-0.1-0.9-0.1c-0.5,0-1,0.1-1.3,0.3S451,16,451,16.3c0,0.1,0,0.2,0.1,0.4
				s0.1,0.2,0.3,0.3s0.3,0.2,0.5,0.2s0.5,0.1,0.8,0.1c0.5,0,0.9,0.1,1.3,0.2c0.4,0.1,0.7,0.2,1,0.4c0.3,0.2,0.5,0.4,0.6,0.7
				c0.1,0.3,0.2,0.6,0.2,1c0,0.4-0.1,0.7-0.2,1s-0.3,0.6-0.6,0.8c-0.3,0.2-0.7,0.4-1.1,0.6c-0.5,0.1-1,0.2-1.6,0.2
				c-0.6,0-1.1-0.1-1.5-0.2s-0.8-0.3-1.1-0.5c-0.3-0.2-0.6-0.4-0.8-0.7l1.1-1.1c0.2,0.2,0.4,0.4,0.6,0.5c0.2,0.1,0.4,0.2,0.7,0.3
				c0.3,0.1,0.6,0.2,1,0.2c0.4,0,0.7,0,0.9-0.1s0.5-0.1,0.6-0.2s0.3-0.2,0.3-0.3s0.1-0.2,0.1-0.4c0-0.2,0-0.3-0.1-0.4
				s-0.2-0.2-0.4-0.3c-0.2-0.1-0.4-0.1-0.6-0.2s-0.5-0.1-0.8-0.1c-0.3,0-0.7-0.1-1-0.2c-0.4-0.1-0.7-0.2-1-0.4s-0.5-0.4-0.7-0.7
				c-0.2-0.3-0.3-0.7-0.3-1.2c0-0.4,0.1-0.8,0.3-1.1s0.4-0.6,0.7-0.8c0.3-0.2,0.6-0.4,1-0.5S452.2,13.9,452.6,13.9z"></path>
<path fill="#231F20" d="M461.3,20.8c0.2,0,0.5,0,0.6-0.1s0.4-0.1,0.5-0.1s0.3-0.1,0.4-0.2c0.1-0.1,0.3-0.2,0.4-0.3l1.1,1
				c-0.2,0.2-0.4,0.4-0.6,0.5s-0.4,0.3-0.7,0.4s-0.5,0.2-0.8,0.2c-0.3,0.1-0.6,0.1-0.9,0.1c-0.6,0-1.1-0.1-1.6-0.3s-0.8-0.5-1.1-0.9
				s-0.5-0.8-0.7-1.3c-0.1-0.5-0.2-1.1-0.2-1.6c0-0.6,0.1-1.1,0.2-1.6s0.4-1,0.6-1.3s0.6-0.7,1.1-0.9s0.9-0.3,1.5-0.3
				s1.1,0.1,1.5,0.3s0.8,0.5,1,0.9s0.5,0.8,0.6,1.3s0.2,1.1,0.2,1.6v0.6h-5.2c0,0.3,0.1,0.6,0.2,0.8s0.2,0.5,0.4,0.7
				s0.4,0.3,0.6,0.5S461,20.8,461.3,20.8z M461.1,15.3c-0.3,0-0.5,0.1-0.7,0.2s-0.4,0.2-0.5,0.4s-0.3,0.4-0.4,0.6s-0.1,0.5-0.2,0.7
				h3.5c0-0.3-0.1-0.5-0.2-0.7s-0.2-0.4-0.3-0.6s-0.3-0.3-0.5-0.4S461.4,15.3,461.1,15.3z"></path>
<path fill="#231F20" d="M466.7,13.9h1.5v0.8h0.1c0.1-0.2,0.3-0.3,0.5-0.4c0.2-0.1,0.3-0.2,0.6-0.3c0.2-0.1,0.5-0.1,0.7-0.1
				c0.3,0,0.6,0,0.9,0.1c0.3,0.1,0.5,0.1,0.7,0.2c0.2,0.1,0.4,0.2,0.6,0.3l-0.9,1.2c-0.1-0.1-0.2-0.1-0.4-0.2
				c-0.1-0.1-0.3-0.1-0.4-0.1s-0.4-0.1-0.6-0.1c-0.2,0-0.4,0-0.6,0.1c-0.2,0.1-0.3,0.1-0.5,0.2s-0.3,0.2-0.4,0.3s-0.2,0.2-0.2,0.3
				v5.9h-1.5V13.9z"></path>
<path fill="#231F20" d="M477.4,22.1h-1.2l-3.1-8.2h1.6l2,5.8h0.2l2-5.8h1.6L477.4,22.1z"></path>
<path fill="#231F20" d="M483.8,12.2h-1.5v-1.5h1.5V12.2z M483.8,22.1h-1.5v-8.2h1.5V22.1z"></path>
<path fill="#231F20" d="M485.7,18c0-0.6,0.1-1.1,0.2-1.6s0.4-1,0.7-1.3s0.7-0.7,1.1-0.9s1-0.3,1.5-0.3c0.5,0,0.9,0.1,1.3,0.2
				c0.4,0.1,0.7,0.3,0.9,0.4c0.3,0.2,0.5,0.4,0.7,0.6l-1.1,1c-0.1-0.1-0.3-0.3-0.4-0.4c-0.2-0.1-0.3-0.2-0.5-0.3
				c-0.2-0.1-0.5-0.1-0.8-0.1c-0.3,0-0.6,0.1-0.9,0.2s-0.5,0.4-0.7,0.6c-0.2,0.3-0.3,0.5-0.4,0.9s-0.1,0.7-0.1,1c0,0.3,0,0.7,0.1,1
				c0.1,0.3,0.2,0.6,0.4,0.9s0.4,0.5,0.7,0.6s0.6,0.2,0.9,0.2c0.3,0,0.5,0,0.8-0.1s0.4-0.2,0.5-0.3c0.2-0.1,0.3-0.2,0.4-0.4l1.1,1
				c-0.2,0.2-0.4,0.4-0.7,0.6c-0.2,0.2-0.5,0.3-0.9,0.4s-0.8,0.2-1.3,0.2c-0.6,0-1.1-0.1-1.5-0.3s-0.8-0.5-1.1-0.9s-0.5-0.8-0.7-1.3
				S485.7,18.6,485.7,18z"></path>
<path fill="#231F20" d="M497.3,20.8c0.2,0,0.5,0,0.6-0.1s0.4-0.1,0.5-0.1s0.3-0.1,0.4-0.2c0.1-0.1,0.3-0.2,0.4-0.3l1.1,1
				c-0.2,0.2-0.4,0.4-0.6,0.5s-0.4,0.3-0.7,0.4s-0.5,0.2-0.8,0.2c-0.3,0.1-0.6,0.1-0.9,0.1c-0.6,0-1.1-0.1-1.6-0.3s-0.8-0.5-1.1-0.9
				s-0.5-0.8-0.7-1.3c-0.1-0.5-0.2-1.1-0.2-1.6c0-0.6,0.1-1.1,0.2-1.6s0.4-1,0.6-1.3s0.6-0.7,1.1-0.9s0.9-0.3,1.5-0.3
				s1.1,0.1,1.5,0.3s0.8,0.5,1.1,0.9s0.5,0.8,0.6,1.3s0.2,1.1,0.2,1.6v0.6h-5.2c0,0.3,0.1,0.6,0.2,0.8s0.2,0.5,0.4,0.7
				s0.4,0.3,0.6,0.5S497,20.8,497.3,20.8z M497.1,15.3c-0.3,0-0.5,0.1-0.7,0.2s-0.4,0.2-0.5,0.4s-0.3,0.4-0.4,0.6s-0.1,0.5-0.2,0.7
				h3.5c0-0.3-0.1-0.5-0.2-0.7s-0.2-0.4-0.3-0.6s-0.3-0.3-0.5-0.4S497.4,15.3,497.1,15.3z"></path>
		</g>
	</g>
<g id="laptop">
<g id="frame">
<g>
<path fill="#231F20" d="M147.8,191.1v62.8h-115v-62.8H147.8 M149.8,189.1h-119v66.8h119V189.1L149.8,189.1z"></path>
			</g>
		</g>
<g id="screen">
<g>
<path fill="#231F20" d="M143.3,195.6v54.2h-106v-54.2H143.3 M145.3,193.6h-110v58.2h110V193.6L145.3,193.6z"></path>
			</g>
		</g>
<g id="base">
<path fill="#231F20" d="M149.1,255.9l12.8,10.8l0,3H18.7l0-3l12.8-10.8h57.9H149.1 M149.8,253.9H89.4H30.8l-14.1,11.9l0,6h147.2
				l0-6L149.8,253.9L149.8,253.9z"></path>
		</g>
<polyline id="path" fill="none" stroke="#231F20" stroke-width="2" stroke-miterlimit="10" points="18.1,266.3 85,266.3 85,267
			93.9,267 93.9,266.3 162.5,266.3 		"></polyline>
<line id="eyecam" fill="#FFFFFF" stroke="#231F20" stroke-miterlimit="10" x1="87.8" y1="192.2" x2="89.4" y2="192.2"></line>
<rect id="graph-3" x="109.6" y="206.3" fill="none" stroke="#231F20" stroke-width="2" stroke-miterlimit="10" width="16.6" height="38.8"></rect>
<rect id="graph-2" x="82" y="213.9" fill="none" stroke="#FFDD0C" stroke-width="2" stroke-miterlimit="10" width="16.6" height="31.2"></rect>
<rect id="graph-1" x="54.3" y="221.5" fill="none" stroke="#231F20" stroke-width="2" stroke-miterlimit="10" width="16.6" height="23.6"></rect>
<polyline id="graph-base" fill="none" stroke="#231F20" stroke-width="2" stroke-miterlimit="10" points="45.1,199.3 45.1,245.1
			134.8,245.1 		"></polyline>
	</g>
<g>
<g>
<path fill="#231F20" d="M30.1,169.9v4.4h-1.6v-11.5h4.7c0.2,0,0.4,0,0.6,0.1s0.5,0.1,0.7,0.3s0.5,0.3,0.7,0.5s0.4,0.4,0.6,0.7
				c0.2,0.3,0.3,0.6,0.4,0.9s0.2,0.7,0.2,1.1c0,0.4-0.1,0.8-0.2,1.1s-0.3,0.6-0.4,0.9s-0.4,0.5-0.6,0.7s-0.5,0.3-0.7,0.5
				c-0.2,0.1-0.5,0.2-0.7,0.3s-0.4,0.1-0.6,0.1H30.1z M33.3,168.5c0.2,0,0.4,0,0.6-0.1s0.4-0.2,0.5-0.4c0.2-0.2,0.3-0.4,0.4-0.6
				c0.1-0.3,0.2-0.6,0.2-0.9s-0.1-0.6-0.2-0.9s-0.3-0.5-0.4-0.6c-0.2-0.2-0.4-0.3-0.5-0.4s-0.4-0.1-0.6-0.1h-3.2v4.1H33.3z"></path>
<path fill="#231F20" d="M37.5,169.8c0-0.2,0-0.4,0.1-0.7s0.1-0.5,0.2-0.8s0.2-0.6,0.4-0.8s0.4-0.5,0.6-0.7s0.5-0.4,0.9-0.5
				s0.8-0.2,1.2-0.2c0.5,0,0.9,0.1,1.2,0.2s0.7,0.3,0.9,0.5s0.5,0.5,0.6,0.7s0.3,0.6,0.4,0.8s0.2,0.5,0.2,0.8s0.1,0.5,0.1,0.7v0.8
				c0,0.2,0,0.4-0.1,0.7s-0.1,0.5-0.2,0.8s-0.2,0.6-0.4,0.8c-0.2,0.3-0.4,0.5-0.6,0.7s-0.6,0.4-0.9,0.5c-0.4,0.1-0.8,0.2-1.2,0.2
				c-0.5,0-0.9-0.1-1.2-0.2s-0.7-0.3-0.9-0.5s-0.5-0.5-0.6-0.7s-0.3-0.6-0.4-0.8s-0.2-0.5-0.2-0.8s-0.1-0.5-0.1-0.7V169.8z
				 M42.7,169.8c0-0.2,0-0.5-0.1-0.8c-0.1-0.3-0.1-0.5-0.3-0.8s-0.3-0.4-0.6-0.6s-0.5-0.2-0.9-0.2c-0.4,0-0.7,0.1-0.9,0.2
				s-0.4,0.3-0.6,0.6s-0.2,0.5-0.3,0.8c-0.1,0.3-0.1,0.5-0.1,0.8v0.8c0,0.2,0,0.5,0.1,0.7s0.1,0.5,0.3,0.8s0.3,0.4,0.6,0.6
				s0.5,0.2,0.9,0.2c0.4,0,0.7-0.1,0.9-0.2s0.4-0.3,0.6-0.6c0.1-0.2,0.2-0.5,0.3-0.8s0.1-0.5,0.1-0.8V169.8z"></path>
<path fill="#231F20" d="M51.6,168.8h-0.2l-1.9,5.5h-1.2l-2.5-8.2h1.6l1.5,5.7h0.2l1.9-5.7h1l1.9,5.7h0.2l1.5-5.7h1.6l-2.5,8.2
				h-1.2L51.6,168.8z"></path>
<path fill="#231F20" d="M62,173c0.2,0,0.5,0,0.6-0.1s0.4-0.1,0.5-0.1s0.3-0.1,0.4-0.2c0.1-0.1,0.3-0.2,0.4-0.3l1.1,1
				c-0.2,0.2-0.4,0.4-0.6,0.5s-0.4,0.3-0.7,0.4s-0.5,0.2-0.8,0.2c-0.3,0.1-0.6,0.1-0.9,0.1c-0.6,0-1.1-0.1-1.6-0.3s-0.8-0.5-1.1-0.9
				s-0.5-0.8-0.7-1.3c-0.1-0.5-0.2-1.1-0.2-1.6c0-0.6,0.1-1.1,0.2-1.6s0.4-1,0.6-1.3s0.6-0.7,1.1-0.9s0.9-0.3,1.5-0.3
				s1.1,0.1,1.5,0.3s0.8,0.5,1.1,0.9s0.5,0.8,0.6,1.3s0.2,1.1,0.2,1.6v0.6H60c0,0.3,0.1,0.6,0.2,0.8s0.2,0.5,0.4,0.7
				s0.4,0.3,0.6,0.5S61.7,173,62,173z M61.8,167.5c-0.3,0-0.5,0.1-0.7,0.2s-0.4,0.2-0.5,0.4s-0.3,0.4-0.4,0.6s-0.1,0.5-0.2,0.7h3.5
				c0-0.3-0.1-0.5-0.2-0.7s-0.2-0.4-0.3-0.6s-0.3-0.3-0.5-0.4S62.1,167.5,61.8,167.5z"></path>
<path fill="#231F20" d="M67.4,166.1H69v0.8h0.1c0.1-0.2,0.3-0.3,0.5-0.4c0.2-0.1,0.3-0.2,0.6-0.3c0.2-0.1,0.5-0.1,0.7-0.1
				c0.3,0,0.6,0,0.9,0.1c0.3,0.1,0.5,0.1,0.7,0.2c0.2,0.1,0.4,0.2,0.6,0.3L72,168c-0.1-0.1-0.2-0.1-0.4-0.2
				c-0.1-0.1-0.3-0.1-0.4-0.1s-0.4-0.1-0.6-0.1c-0.2,0-0.4,0-0.6,0.1c-0.2,0.1-0.3,0.1-0.5,0.2s-0.3,0.2-0.4,0.3s-0.2,0.2-0.2,0.3
				v5.9h-1.5V166.1z"></path>
<path fill="#231F20" d="M82.8,162.9c0.2,0,0.5,0,0.7,0.1c0.3,0,0.5,0.1,0.8,0.2c0.3,0.1,0.5,0.2,0.7,0.4s0.4,0.4,0.6,0.6
				s0.3,0.5,0.4,0.8s0.2,0.7,0.2,1c0,0.2,0,0.4-0.1,0.6c0,0.2-0.1,0.4-0.2,0.5s-0.1,0.3-0.2,0.4s-0.2,0.2-0.3,0.3
				c-0.2,0.2-0.5,0.4-0.7,0.6v0.1c0.2,0.1,0.3,0.2,0.5,0.3s0.4,0.3,0.6,0.5s0.3,0.5,0.4,0.8s0.2,0.7,0.2,1.1c0,0.6-0.1,1-0.3,1.4
				s-0.5,0.7-0.9,1s-0.7,0.5-1.2,0.6s-0.8,0.2-1.2,0.2h-4.4v-11.5H82.8z M82.7,167.8c0.2,0,0.5,0,0.7-0.1c0.2-0.1,0.5-0.1,0.6-0.3
				c0.2-0.1,0.3-0.3,0.4-0.5s0.2-0.5,0.2-0.8s-0.1-0.6-0.2-0.8s-0.3-0.4-0.5-0.5s-0.4-0.2-0.6-0.3c-0.2-0.1-0.4-0.1-0.6-0.1H80v3.4
				H82.7z M82.9,172.8c0.1,0,0.2,0,0.3,0s0.3-0.1,0.4-0.1s0.3-0.1,0.4-0.2c0.1-0.1,0.3-0.2,0.4-0.3c0.1-0.1,0.2-0.3,0.3-0.5
				s0.1-0.4,0.1-0.6c0-0.4-0.1-0.7-0.2-0.9s-0.3-0.4-0.5-0.5c-0.2-0.1-0.4-0.2-0.6-0.3s-0.4-0.1-0.6-0.1H80v3.6H82.9z"></path>
<path fill="#231F20" d="M90.3,174.3h-1.6v-11.5h1.6V174.3z"></path>
<path fill="#231F20" d="M101.2,174.3h-4.1v-11.5h4.1c0.6,0,1,0.1,1.5,0.2s0.8,0.3,1.1,0.5c0.3,0.2,0.6,0.4,0.8,0.7
				c0.2,0.3,0.4,0.5,0.5,0.8s0.2,0.5,0.3,0.8s0.1,0.5,0.1,0.7v4c0,0.2,0,0.5-0.1,0.7s-0.1,0.5-0.3,0.8s-0.3,0.5-0.5,0.8
				s-0.5,0.5-0.8,0.7s-0.7,0.4-1.1,0.5S101.7,174.3,101.2,174.3z M98.7,164.4v8.5h2.6c0.5,0,0.9-0.1,1.2-0.2s0.6-0.3,0.8-0.5
				c0.2-0.2,0.3-0.5,0.4-0.7c0.1-0.3,0.1-0.5,0.1-0.7v-4.1c0-0.2,0-0.5-0.1-0.7c-0.1-0.3-0.2-0.5-0.4-0.7s-0.4-0.4-0.8-0.5
				s-0.7-0.2-1.2-0.2H98.7z"></path>
<path fill="#231F20" d="M110.8,173c0.2,0,0.5,0,0.6-0.1s0.4-0.1,0.5-0.1s0.3-0.1,0.4-0.2c0.1-0.1,0.3-0.2,0.4-0.3l1.1,1
				c-0.2,0.2-0.4,0.4-0.6,0.5s-0.4,0.3-0.7,0.4s-0.5,0.2-0.8,0.2c-0.3,0.1-0.6,0.1-0.9,0.1c-0.6,0-1.1-0.1-1.6-0.3s-0.8-0.5-1.1-0.9
				s-0.5-0.8-0.7-1.3c-0.1-0.5-0.2-1.1-0.2-1.6c0-0.6,0.1-1.1,0.2-1.6s0.4-1,0.6-1.3s0.6-0.7,1.1-0.9s0.9-0.3,1.5-0.3
				s1.1,0.1,1.5,0.3s0.8,0.5,1.1,0.9s0.5,0.8,0.6,1.3s0.2,1.1,0.2,1.6v0.6h-5.2c0,0.3,0.1,0.6,0.2,0.8s0.2,0.5,0.4,0.7
				s0.4,0.3,0.6,0.5S110.5,173,110.8,173z M110.6,167.5c-0.3,0-0.5,0.1-0.7,0.2s-0.4,0.2-0.5,0.4s-0.3,0.4-0.4,0.6s-0.1,0.5-0.2,0.7
				h3.5c0-0.3-0.1-0.5-0.2-0.7s-0.2-0.4-0.3-0.6s-0.3-0.3-0.5-0.4S110.9,167.5,110.6,167.5z"></path>
<path fill="#231F20" d="M119.3,166.1c0.5,0,0.9,0.1,1.3,0.2s0.7,0.2,1,0.3c0.3,0.2,0.6,0.3,0.9,0.5l-1,1.2
				c-0.2-0.1-0.4-0.2-0.6-0.4c-0.2-0.1-0.4-0.2-0.7-0.2s-0.6-0.1-0.9-0.1c-0.5,0-1,0.1-1.3,0.3s-0.4,0.4-0.4,0.7
				c0,0.1,0,0.2,0.1,0.4s0.1,0.2,0.3,0.3s0.3,0.2,0.5,0.2s0.5,0.1,0.8,0.1c0.5,0,0.9,0.1,1.3,0.2c0.4,0.1,0.7,0.2,1,0.4
				c0.3,0.2,0.5,0.4,0.6,0.7c0.1,0.3,0.2,0.6,0.2,1c0,0.4-0.1,0.7-0.2,1s-0.3,0.6-0.6,0.8c-0.3,0.2-0.7,0.4-1.1,0.6
				c-0.5,0.1-1,0.2-1.6,0.2c-0.6,0-1.1-0.1-1.5-0.2s-0.8-0.3-1.1-0.5c-0.3-0.2-0.6-0.4-0.8-0.7l1.1-1.1c0.2,0.2,0.4,0.4,0.6,0.5
				c0.2,0.1,0.4,0.2,0.7,0.3c0.3,0.1,0.6,0.2,1,0.2c0.4,0,0.7,0,0.9-0.1s0.5-0.1,0.6-0.2s0.3-0.2,0.3-0.3s0.1-0.2,0.1-0.4
				c0-0.2,0-0.3-0.1-0.4s-0.2-0.2-0.4-0.3c-0.2-0.1-0.4-0.1-0.6-0.2s-0.5-0.1-0.8-0.1c-0.3,0-0.7-0.1-1-0.2c-0.4-0.1-0.7-0.2-1-0.4
				s-0.5-0.4-0.7-0.7c-0.2-0.3-0.3-0.7-0.3-1.2c0-0.4,0.1-0.8,0.3-1.1s0.4-0.6,0.7-0.8c0.3-0.2,0.6-0.4,1-0.5
				S118.9,166.1,119.3,166.1z"></path>
<path fill="#231F20" d="M126.2,169.7L126.2,169.7l3.2-3.6h2l-2.9,3.1l3.2,5.1H130l-2.4-4.1l-1.4,1.5v2.6h-1.5v-11.5h1.5V169.7z"></path>
<path fill="#231F20" d="M136.5,167.6h-1.3v4.7c0,0.1,0,0.1,0,0.2s0,0.1,0.1,0.2s0.1,0.1,0.1,0.1s0.1,0.1,0.2,0.1h0.9v1.5h-1.1
				c-0.1,0-0.2,0-0.3,0s-0.2,0-0.4-0.1s-0.3-0.1-0.4-0.2s-0.3-0.2-0.4-0.4s-0.2-0.3-0.3-0.6s-0.1-0.5-0.1-0.9v-4.7h-0.8v-1.4h0.8
				v-2.2h1.5v2.2h1.3V167.6z"></path>
<path fill="#231F20" d="M138.5,169.8c0-0.2,0-0.4,0.1-0.7s0.1-0.5,0.2-0.8s0.2-0.6,0.4-0.8s0.4-0.5,0.6-0.7s0.5-0.4,0.9-0.5
				s0.8-0.2,1.2-0.2c0.5,0,0.9,0.1,1.2,0.2s0.7,0.3,0.9,0.5s0.5,0.5,0.6,0.7s0.3,0.6,0.4,0.8s0.2,0.5,0.2,0.8s0.1,0.5,0.1,0.7v0.8
				c0,0.2,0,0.4-0.1,0.7s-0.1,0.5-0.2,0.8s-0.2,0.6-0.4,0.8c-0.2,0.3-0.4,0.5-0.6,0.7s-0.6,0.4-0.9,0.5c-0.4,0.1-0.8,0.2-1.2,0.2
				c-0.5,0-0.9-0.1-1.2-0.2s-0.7-0.3-0.9-0.5s-0.5-0.5-0.6-0.7s-0.3-0.6-0.4-0.8s-0.2-0.5-0.2-0.8s-0.1-0.5-0.1-0.7V169.8z
				 M143.7,169.8c0-0.2,0-0.5-0.1-0.8c-0.1-0.3-0.1-0.5-0.3-0.8s-0.3-0.4-0.6-0.6s-0.5-0.2-0.9-0.2c-0.4,0-0.7,0.1-0.9,0.2
				s-0.4,0.3-0.6,0.6s-0.2,0.5-0.3,0.8c-0.1,0.3-0.1,0.5-0.1,0.8v0.8c0,0.2,0,0.5,0.1,0.7s0.1,0.5,0.3,0.8s0.3,0.4,0.6,0.6
				s0.5,0.2,0.9,0.2c0.4,0,0.7-0.1,0.9-0.2s0.4-0.3,0.6-0.6c0.1-0.2,0.2-0.5,0.3-0.8s0.1-0.5,0.1-0.8V169.8z"></path>
<path fill="#231F20" d="M147.5,166.1h1.5v0.7h0.1c0.2-0.1,0.3-0.3,0.6-0.4c0.2-0.1,0.4-0.2,0.6-0.3s0.5-0.1,0.8-0.1
				c0.4,0,0.8,0.1,1.2,0.2c0.3,0.2,0.6,0.4,0.9,0.7s0.4,0.6,0.6,1s0.2,0.8,0.2,1.2v2.2c0,0.4-0.1,0.8-0.2,1.2s-0.3,0.7-0.6,1
				s-0.6,0.5-0.9,0.7s-0.7,0.3-1.2,0.3c-0.3,0-0.6,0-0.8-0.1c-0.2-0.1-0.4-0.2-0.6-0.2c-0.2-0.1-0.4-0.2-0.5-0.4H149v3.9h-1.5V166.1
				z M150.9,167.5c-0.4,0-0.7,0.1-0.9,0.2s-0.4,0.3-0.6,0.4s-0.2,0.4-0.3,0.5s-0.1,0.3-0.1,0.5v2.8c0.2,0.2,0.3,0.3,0.5,0.5
				c0.2,0.1,0.4,0.2,0.6,0.3c0.2,0.1,0.5,0.1,0.7,0.1c0.3,0,0.5-0.1,0.8-0.2s0.4-0.2,0.5-0.4s0.2-0.3,0.3-0.5s0.1-0.4,0.1-0.6v-2.2
				c0-0.1,0-0.3-0.1-0.5c-0.1-0.2-0.1-0.4-0.3-0.5s-0.3-0.3-0.5-0.4S151.2,167.5,150.9,167.5z"></path>
		</g>
	</g>
<g>
<path fill="#231F20" d="M61.6,32.9h-4.3v2.8h0.1c0.1-0.1,0.3-0.2,0.4-0.2c0.1-0.1,0.3-0.1,0.5-0.2c0.2,0,0.4-0.1,0.6-0.1
			c0.2,0,0.4,0,0.6,0s0.4,0.1,0.7,0.2s0.5,0.2,0.7,0.4c0.2,0.2,0.4,0.4,0.6,0.7s0.3,0.6,0.4,1.1c0.1,0.4,0.2,0.9,0.2,1.5
			c0,0.6-0.1,1-0.2,1.5s-0.2,0.8-0.4,1s-0.4,0.5-0.6,0.7s-0.5,0.3-0.7,0.4c-0.2,0.1-0.5,0.2-0.7,0.2S58.9,43,58.6,43
			c-0.4,0-0.7,0-1-0.1c-0.3-0.1-0.5-0.2-0.8-0.3c-0.2-0.1-0.4-0.3-0.6-0.4c-0.2-0.2-0.3-0.3-0.4-0.5c-0.3-0.4-0.4-0.9-0.5-1.4h1.5
			c0,0.3,0.1,0.5,0.3,0.7c0.1,0.2,0.3,0.3,0.5,0.5c0.2,0.1,0.5,0.2,0.9,0.2c0.2,0,0.5,0,0.7-0.1c0.2-0.1,0.4-0.2,0.6-0.4
			c0.2-0.2,0.3-0.4,0.4-0.6s0.1-0.6,0.1-0.9v-0.7c0-0.3,0-0.6-0.1-0.8s-0.2-0.5-0.3-0.7c-0.1-0.2-0.3-0.3-0.5-0.4s-0.5-0.2-0.8-0.2
			c-0.3,0-0.5,0-0.7,0.1s-0.4,0.2-0.5,0.3c-0.2,0.1-0.3,0.3-0.4,0.5h-1.4v-6.2h5.8V32.9z"></path>
<path fill="#231F20" d="M64.4,39v-3.6c0-0.2,0-0.5,0-0.8s0.1-0.6,0.2-0.9c0.1-0.3,0.2-0.6,0.3-0.9s0.3-0.5,0.6-0.8
			s0.5-0.4,0.9-0.5s0.8-0.2,1.3-0.2s0.9,0.1,1.3,0.2s0.6,0.3,0.9,0.5s0.4,0.5,0.6,0.8s0.3,0.6,0.3,0.9c0.1,0.3,0.1,0.6,0.2,0.9
			s0,0.5,0,0.8V39c0,0.2,0,0.5,0,0.7s-0.1,0.6-0.2,0.9s-0.2,0.6-0.3,0.9c-0.1,0.3-0.3,0.5-0.6,0.8s-0.5,0.4-0.9,0.5
			c-0.3,0.1-0.8,0.2-1.3,0.2s-0.9-0.1-1.3-0.2s-0.6-0.3-0.9-0.5s-0.4-0.5-0.6-0.8s-0.3-0.6-0.3-0.9c-0.1-0.3-0.1-0.6-0.2-0.9
			S64.4,39.2,64.4,39z M69.4,39v-3.6c0-0.1,0-0.3,0-0.5c0-0.2,0-0.4-0.1-0.5s-0.1-0.4-0.2-0.6s-0.2-0.3-0.3-0.5s-0.3-0.3-0.5-0.3
			s-0.4-0.1-0.7-0.1c-0.4,0-0.7,0.1-1,0.3c-0.2,0.2-0.4,0.4-0.5,0.7S66,34.3,66,34.6c0,0.3,0,0.5,0,0.8V39c0,0.1,0,0.3,0,0.5
			c0,0.2,0,0.4,0.1,0.5s0.1,0.4,0.2,0.5s0.2,0.3,0.3,0.5c0.1,0.1,0.3,0.3,0.5,0.3s0.4,0.1,0.7,0.1s0.5,0,0.7-0.1s0.4-0.2,0.5-0.3
			s0.2-0.3,0.3-0.5s0.1-0.4,0.2-0.6s0.1-0.4,0.1-0.5C69.4,39.3,69.4,39.2,69.4,39z"></path>
<path fill="#231F20" d="M77.2,38.1h1.7v1.5h-1.7v1.7h-1.5v-1.7H74v-1.5h1.7v-1.7h1.5V38.1z"></path>
<path fill="#231F20" d="M88.8,34.7c0.6,0,1.1,0.1,1.5,0.2s0.8,0.3,1.1,0.6s0.5,0.6,0.6,0.9s0.2,0.7,0.2,1.1v5.4h-1.6v-0.6h-0.1
			c-0.2,0.1-0.3,0.2-0.5,0.3c-0.1,0.1-0.3,0.2-0.5,0.2S89.2,42.9,89,43s-0.4,0-0.7,0c-0.4,0-0.7,0-1.1-0.1c-0.3-0.1-0.6-0.2-0.8-0.4
			c-0.2-0.2-0.4-0.5-0.6-0.8c-0.1-0.3-0.2-0.7-0.2-1.1c0-0.4,0.1-0.8,0.2-1.1s0.4-0.5,0.6-0.7s0.6-0.3,1-0.4s0.8-0.1,1.2-0.1
			c0.3,0,0.5,0,0.7,0c0.2,0,0.3,0,0.5,0c0.1,0,0.3,0,0.4,0c0.1,0,0.3,0,0.4-0.1v-0.5c0-0.2,0-0.4-0.1-0.5s-0.2-0.3-0.3-0.5
			s-0.3-0.3-0.5-0.4s-0.5-0.1-0.9-0.1c-0.2,0-0.4,0-0.5,0s-0.3,0.1-0.4,0.1c-0.1,0-0.2,0.1-0.3,0.2c-0.1,0.1-0.2,0.1-0.3,0.2
			L86,35.8c0.1-0.2,0.3-0.3,0.5-0.5s0.4-0.3,0.6-0.4c0.2-0.1,0.5-0.2,0.8-0.2S88.4,34.7,88.8,34.7z M90.6,39.3
			c-0.3,0-0.6,0.1-0.8,0.1s-0.5,0-0.9,0c-0.3,0-0.6,0-0.9,0.1s-0.4,0.2-0.5,0.3s-0.2,0.2-0.3,0.4s-0.1,0.3-0.1,0.4s0,0.2,0,0.4
			c0,0.1,0.1,0.3,0.2,0.4c0.1,0.1,0.2,0.2,0.4,0.3c0.2,0.1,0.5,0.1,0.8,0.1c0.4,0,0.7,0,1-0.1c0.3-0.1,0.5-0.2,0.6-0.3
			s0.3-0.3,0.3-0.4s0.1-0.3,0.1-0.4V39.3z"></path>
<path fill="#231F20" d="M94.7,34.7h1.5v0.7h0.1c0.2-0.1,0.3-0.3,0.6-0.4c0.2-0.1,0.4-0.2,0.6-0.3s0.5-0.1,0.8-0.1
			c0.4,0,0.8,0.1,1.2,0.2c0.3,0.2,0.6,0.4,0.9,0.7s0.4,0.6,0.6,1s0.2,0.8,0.2,1.2v2.2c0,0.4-0.1,0.8-0.2,1.2s-0.3,0.7-0.6,1
			s-0.6,0.5-0.9,0.7S98.7,43,98.3,43c-0.3,0-0.6,0-0.8-0.1c-0.2-0.1-0.4-0.2-0.6-0.2c-0.2-0.1-0.4-0.2-0.5-0.4h-0.1v3.9h-1.5V34.7z
			 M98,36.1c-0.4,0-0.7,0.1-0.9,0.2s-0.4,0.3-0.6,0.4s-0.2,0.4-0.3,0.5s-0.1,0.3-0.1,0.5v2.8c0.2,0.2,0.3,0.3,0.5,0.5
			c0.2,0.1,0.4,0.2,0.6,0.3c0.2,0.1,0.5,0.1,0.7,0.1c0.3,0,0.5-0.1,0.8-0.2s0.4-0.2,0.5-0.4s0.2-0.3,0.3-0.5s0.1-0.4,0.1-0.6v-2.2
			c0-0.1,0-0.3-0.1-0.5c-0.1-0.2-0.1-0.4-0.3-0.5s-0.3-0.3-0.5-0.4S98.3,36.1,98,36.1z"></path>
<path fill="#231F20" d="M103.4,34.7h1.5v0.7h0.1c0.2-0.1,0.3-0.3,0.6-0.4c0.2-0.1,0.4-0.2,0.6-0.3s0.5-0.1,0.8-0.1
			c0.4,0,0.8,0.1,1.2,0.2c0.3,0.2,0.6,0.4,0.9,0.7s0.4,0.6,0.6,1s0.2,0.8,0.2,1.2v2.2c0,0.4-0.1,0.8-0.2,1.2s-0.3,0.7-0.6,1
			s-0.6,0.5-0.9,0.7S107.4,43,107,43c-0.3,0-0.6,0-0.8-0.1c-0.2-0.1-0.4-0.2-0.6-0.2c-0.2-0.1-0.4-0.2-0.5-0.4H105v3.9h-1.5V34.7z
			 M106.8,36.1c-0.4,0-0.7,0.1-0.9,0.2s-0.4,0.3-0.6,0.4s-0.2,0.4-0.3,0.5s-0.1,0.3-0.1,0.5v2.8c0.2,0.2,0.3,0.3,0.5,0.5
			c0.2,0.1,0.4,0.2,0.6,0.3c0.2,0.1,0.5,0.1,0.7,0.1c0.3,0,0.5-0.1,0.8-0.2s0.4-0.2,0.5-0.4s0.2-0.3,0.3-0.5s0.1-0.4,0.1-0.6v-2.2
			c0-0.1,0-0.3-0.1-0.5c-0.1-0.2-0.1-0.4-0.3-0.5s-0.3-0.3-0.5-0.4S107.1,36.1,106.8,36.1z"></path>
<path fill="#231F20" d="M115.3,34.7c0.5,0,0.9,0.1,1.3,0.2s0.7,0.2,1,0.3c0.3,0.2,0.6,0.3,0.9,0.5l-1,1.2
			c-0.2-0.1-0.4-0.2-0.6-0.4c-0.2-0.1-0.4-0.2-0.7-0.2s-0.6-0.1-0.9-0.1c-0.5,0-1,0.1-1.3,0.3s-0.4,0.4-0.4,0.7c0,0.1,0,0.2,0.1,0.4
			s0.1,0.2,0.3,0.3s0.3,0.2,0.5,0.2s0.5,0.1,0.8,0.1c0.5,0,0.9,0.1,1.3,0.2c0.4,0.1,0.7,0.2,1,0.4c0.3,0.2,0.5,0.4,0.6,0.7
			c0.1,0.3,0.2,0.6,0.2,1c0,0.4-0.1,0.7-0.2,1s-0.3,0.6-0.6,0.8c-0.3,0.2-0.7,0.4-1.1,0.6c-0.5,0.1-1,0.2-1.6,0.2
			c-0.6,0-1.1-0.1-1.5-0.2s-0.8-0.3-1.1-0.5c-0.3-0.2-0.6-0.4-0.8-0.7l1.1-1.1c0.2,0.2,0.4,0.4,0.6,0.5c0.2,0.1,0.4,0.2,0.7,0.3
			c0.3,0.1,0.6,0.2,1,0.2c0.4,0,0.7,0,0.9-0.1s0.5-0.1,0.6-0.2s0.3-0.2,0.3-0.3s0.1-0.2,0.1-0.4c0-0.2,0-0.3-0.1-0.4
			s-0.2-0.2-0.4-0.3c-0.2-0.1-0.4-0.1-0.6-0.2s-0.5-0.1-0.8-0.1c-0.3,0-0.7-0.1-1-0.2c-0.4-0.1-0.7-0.2-1-0.4s-0.5-0.4-0.7-0.7
			c-0.2-0.3-0.3-0.7-0.3-1.2c0-0.4,0.1-0.8,0.3-1.1s0.4-0.6,0.7-0.8c0.3-0.2,0.6-0.4,1-0.5S114.9,34.7,115.3,34.7z"></path>
	</g>
<polygon id="outline_2_" fill="none" stroke="#FFDD15" stroke-width="2" stroke-miterlimit="10" points="682.3,157.1 612.9,157.1
		612.9,133.1 682.3,133.1 692.9,145.1 	"></polygon>
<g>
<path fill="#231F20" d="M627.8,148.8l2.6-7h0.8l2.6,7h-1l-0.5-1.5h-2.8l-0.5,1.5H627.8z M630.7,143.4l-1,3h2.2l-1-3H630.7z"></path>
<path fill="#231F20" d="M637.6,141.8c0.3,0,0.6,0,0.8,0.1c0.2,0.1,0.4,0.2,0.6,0.3c0.2,0.1,0.3,0.2,0.5,0.4s0.2,0.3,0.3,0.4
			s0.2,0.3,0.2,0.4c0,0.1,0.1,0.3,0.1,0.4h-1c0-0.1-0.1-0.2-0.1-0.4c-0.1-0.1-0.2-0.2-0.3-0.4c-0.1-0.1-0.3-0.2-0.4-0.3
			c-0.2-0.1-0.4-0.1-0.6-0.1c-0.2,0-0.4,0-0.5,0.1c-0.2,0.1-0.3,0.1-0.4,0.2c-0.1,0.1-0.2,0.2-0.3,0.3c-0.1,0.1-0.1,0.2-0.2,0.3
			s-0.1,0.2-0.1,0.3c0,0.1,0,0.2,0,0.2v2.4c0,0.1,0,0.2,0.1,0.4c0,0.2,0.1,0.3,0.2,0.5c0.1,0.2,0.3,0.3,0.5,0.4
			c0.2,0.1,0.5,0.2,0.8,0.2c0.2,0,0.4,0,0.6-0.1c0.2-0.1,0.3-0.2,0.4-0.3c0.1-0.1,0.2-0.2,0.3-0.4c0.1-0.1,0.1-0.2,0.1-0.4h1
			c0,0.1-0.1,0.3-0.1,0.4c0,0.1-0.1,0.3-0.2,0.4c-0.1,0.2-0.2,0.3-0.3,0.4c-0.1,0.1-0.3,0.3-0.5,0.4c-0.2,0.1-0.4,0.2-0.6,0.3
			c-0.2,0.1-0.5,0.1-0.8,0.1c-0.3,0-0.6,0-0.9-0.1c-0.3-0.1-0.5-0.2-0.7-0.3c-0.2-0.1-0.3-0.3-0.5-0.5c-0.1-0.2-0.2-0.3-0.3-0.5
			c-0.1-0.2-0.1-0.3-0.2-0.5c0-0.2,0-0.3,0-0.4v-2.4c0-0.1,0-0.3,0-0.4c0-0.2,0.1-0.3,0.2-0.5c0.1-0.2,0.2-0.3,0.3-0.5
			c0.1-0.2,0.3-0.3,0.5-0.5c0.2-0.1,0.4-0.2,0.7-0.3C637,141.8,637.3,141.8,637.6,141.8z"></path>
<path fill="#231F20" d="M644.5,141.8c0.3,0,0.6,0,0.8,0.1c0.2,0.1,0.4,0.2,0.6,0.3c0.2,0.1,0.3,0.2,0.5,0.4s0.2,0.3,0.3,0.4
			s0.2,0.3,0.2,0.4c0,0.1,0.1,0.3,0.1,0.4h-1c0-0.1-0.1-0.2-0.1-0.4c-0.1-0.1-0.2-0.2-0.3-0.4c-0.1-0.1-0.3-0.2-0.4-0.3
			c-0.2-0.1-0.4-0.1-0.6-0.1c-0.2,0-0.4,0-0.5,0.1c-0.2,0.1-0.3,0.1-0.4,0.2c-0.1,0.1-0.2,0.2-0.3,0.3c-0.1,0.1-0.1,0.2-0.2,0.3
			s-0.1,0.2-0.1,0.3c0,0.1,0,0.2,0,0.2v2.4c0,0.1,0,0.2,0.1,0.4c0,0.2,0.1,0.3,0.2,0.5c0.1,0.2,0.3,0.3,0.5,0.4
			c0.2,0.1,0.5,0.2,0.8,0.2c0.2,0,0.4,0,0.6-0.1c0.2-0.1,0.3-0.2,0.4-0.3c0.1-0.1,0.2-0.2,0.3-0.4c0.1-0.1,0.1-0.2,0.1-0.4h1
			c0,0.1-0.1,0.3-0.1,0.4c0,0.1-0.1,0.3-0.2,0.4c-0.1,0.2-0.2,0.3-0.3,0.4c-0.1,0.1-0.3,0.3-0.5,0.4c-0.2,0.1-0.4,0.2-0.6,0.3
			c-0.2,0.1-0.5,0.1-0.8,0.1c-0.3,0-0.6,0-0.9-0.1c-0.3-0.1-0.5-0.2-0.7-0.3c-0.2-0.1-0.3-0.3-0.5-0.5c-0.1-0.2-0.2-0.3-0.3-0.5
			c-0.1-0.2-0.1-0.3-0.2-0.5c0-0.2,0-0.3,0-0.4v-2.4c0-0.1,0-0.3,0-0.4c0-0.2,0.1-0.3,0.2-0.5c0.1-0.2,0.2-0.3,0.3-0.5
			c0.1-0.2,0.3-0.3,0.5-0.5c0.2-0.1,0.4-0.2,0.7-0.3C643.9,141.8,644.2,141.8,644.5,141.8z"></path>
<path fill="#231F20" d="M653.1,145.8h-3v2.1h3.5v0.9h-4.5v-7h4.5v0.9h-3.5v2.1h3V145.8z"></path>
<path fill="#231F20" d="M658.1,141.8c0.3,0,0.6,0,0.9,0.1c0.3,0.1,0.5,0.2,0.7,0.2c0.2,0.1,0.4,0.2,0.7,0.3l-0.6,0.8
			c-0.1,0-0.1-0.1-0.2-0.1c-0.1,0-0.2-0.1-0.2-0.1c-0.2-0.1-0.3-0.1-0.5-0.2c-0.2-0.1-0.4-0.1-0.7-0.1c-0.2,0-0.4,0-0.6,0.1
			s-0.3,0.1-0.4,0.2c-0.1,0.1-0.2,0.2-0.3,0.3c-0.1,0.1-0.1,0.3-0.1,0.4c0,0.1,0,0.2,0.1,0.4s0.1,0.2,0.2,0.3
			c0.1,0.1,0.3,0.2,0.5,0.3c0.2,0.1,0.5,0.2,0.8,0.2c0.3,0.1,0.6,0.2,0.9,0.3c0.3,0.1,0.5,0.2,0.7,0.4c0.2,0.2,0.4,0.3,0.5,0.6
			c0.1,0.2,0.2,0.5,0.2,0.7c0,0.3-0.1,0.6-0.2,0.8c-0.1,0.2-0.3,0.5-0.5,0.6c-0.2,0.2-0.5,0.3-0.8,0.4c-0.3,0.1-0.7,0.1-1.1,0.1
			c-0.4,0-0.8,0-1.1-0.1c-0.3-0.1-0.6-0.2-0.8-0.3c-0.1-0.1-0.2-0.1-0.3-0.2c-0.1-0.1-0.2-0.2-0.3-0.2l0.7-0.7
			c0.1,0.1,0.3,0.3,0.5,0.4c0.2,0.1,0.4,0.2,0.6,0.3s0.5,0.1,0.8,0.1c0.2,0,0.5,0,0.7-0.1s0.4-0.1,0.5-0.2c0.1-0.1,0.3-0.2,0.3-0.3
			c0.1-0.1,0.1-0.3,0.1-0.5c0-0.2,0-0.3-0.1-0.4s-0.2-0.2-0.3-0.3c-0.1-0.1-0.3-0.2-0.5-0.2c-0.2-0.1-0.5-0.1-0.7-0.2
			c-0.3-0.1-0.6-0.1-0.8-0.2c-0.3-0.1-0.5-0.2-0.7-0.4c-0.2-0.2-0.3-0.3-0.5-0.6c-0.1-0.2-0.2-0.5-0.2-0.8c0-0.3,0.1-0.6,0.2-0.9
			c0.1-0.2,0.3-0.5,0.5-0.6c0.2-0.2,0.5-0.3,0.8-0.4C657.5,141.8,657.8,141.8,658.1,141.8z"></path>
<path fill="#231F20" d="M664.8,141.8c0.3,0,0.6,0,0.9,0.1c0.3,0.1,0.5,0.2,0.7,0.2c0.2,0.1,0.4,0.2,0.6,0.3l-0.6,0.8
			c-0.1,0-0.1-0.1-0.2-0.1c-0.1,0-0.2-0.1-0.2-0.1c-0.2-0.1-0.3-0.1-0.5-0.2c-0.2-0.1-0.4-0.1-0.6-0.1c-0.2,0-0.4,0-0.6,0.1
			c-0.2,0.1-0.3,0.1-0.4,0.2c-0.1,0.1-0.2,0.2-0.3,0.3c-0.1,0.1-0.1,0.3-0.1,0.4c0,0.1,0,0.2,0.1,0.4s0.1,0.2,0.2,0.3
			c0.1,0.1,0.3,0.2,0.5,0.3c0.2,0.1,0.5,0.2,0.8,0.2c0.3,0.1,0.6,0.2,0.9,0.3c0.3,0.1,0.5,0.2,0.7,0.4c0.2,0.2,0.3,0.3,0.5,0.6
			s0.2,0.5,0.2,0.7c0,0.3-0.1,0.6-0.2,0.8c-0.1,0.2-0.3,0.5-0.5,0.6c-0.2,0.2-0.5,0.3-0.8,0.4c-0.3,0.1-0.7,0.1-1.1,0.1
			c-0.4,0-0.8,0-1.1-0.1c-0.3-0.1-0.6-0.2-0.8-0.3c-0.1-0.1-0.2-0.1-0.3-0.2c-0.1-0.1-0.2-0.2-0.3-0.2l0.6-0.7
			c0.1,0.1,0.3,0.3,0.5,0.4c0.2,0.1,0.4,0.2,0.6,0.3s0.5,0.1,0.8,0.1c0.3,0,0.5,0,0.7-0.1s0.4-0.1,0.5-0.2c0.1-0.1,0.3-0.2,0.3-0.3
			c0.1-0.1,0.1-0.3,0.1-0.5c0-0.2,0-0.3-0.1-0.4c-0.1-0.1-0.2-0.2-0.3-0.3c-0.1-0.1-0.3-0.2-0.5-0.2c-0.2-0.1-0.5-0.1-0.7-0.2
			c-0.3-0.1-0.6-0.1-0.8-0.2c-0.3-0.1-0.5-0.2-0.7-0.4s-0.3-0.3-0.5-0.6c-0.1-0.2-0.2-0.5-0.2-0.8c0-0.3,0.1-0.6,0.2-0.9
			c0.1-0.2,0.3-0.5,0.5-0.6c0.2-0.2,0.5-0.3,0.8-0.4C664.2,141.8,664.5,141.8,664.8,141.8z"></path>
	</g>
<polygon id="outline_1_" fill="none" stroke="#FFDD15" stroke-width="2" stroke-miterlimit="10" points="259.3,217.1 189.9,217.1
		189.9,193.1 259.3,193.1 269.9,205.1 	"></polygon>
<g>
<path fill="#231F20" d="M204.1,206.1v2.7h-1v-7h2.9c0.1,0,0.2,0,0.4,0.1c0.1,0,0.3,0.1,0.4,0.2c0.1,0.1,0.3,0.2,0.4,0.3
			s0.3,0.3,0.4,0.4s0.2,0.3,0.3,0.5c0.1,0.2,0.1,0.4,0.1,0.7c0,0.3,0,0.5-0.1,0.7c-0.1,0.2-0.2,0.4-0.3,0.5s-0.2,0.3-0.4,0.4
			s-0.3,0.2-0.4,0.3c-0.1,0.1-0.3,0.1-0.4,0.2c-0.1,0-0.3,0.1-0.4,0.1H204.1z M206.1,205.2c0.1,0,0.2,0,0.3-0.1
			c0.1-0.1,0.2-0.1,0.3-0.2c0.1-0.1,0.2-0.2,0.3-0.4c0.1-0.2,0.1-0.3,0.1-0.6s0-0.4-0.1-0.6c-0.1-0.2-0.2-0.3-0.3-0.4
			c-0.1-0.1-0.2-0.2-0.3-0.2s-0.2-0.1-0.3-0.1h-2v2.5H206.1z"></path>
<path fill="#231F20" d="M214.9,201.8v4.5c0,0.2,0,0.4,0,0.6c0,0.2-0.1,0.4-0.2,0.6c-0.1,0.2-0.2,0.4-0.3,0.6
			c-0.1,0.2-0.3,0.3-0.5,0.5c-0.2,0.1-0.4,0.2-0.7,0.3c-0.3,0.1-0.6,0.1-0.9,0.1s-0.6,0-0.9-0.1s-0.5-0.2-0.7-0.3
			c-0.2-0.1-0.3-0.3-0.5-0.5c-0.1-0.2-0.2-0.4-0.3-0.6s-0.1-0.4-0.2-0.6c0-0.2,0-0.4,0-0.6v-4.5h1v4.5c0,0.2,0,0.4,0.1,0.6
			c0,0.2,0.1,0.4,0.2,0.5c0.1,0.2,0.3,0.3,0.5,0.4s0.4,0.1,0.8,0.1s0.6,0,0.8-0.1c0.2-0.1,0.4-0.2,0.5-0.4c0.1-0.2,0.2-0.3,0.2-0.5
			c0-0.2,0.1-0.4,0.1-0.6v-4.5H214.9z"></path>
<path fill="#231F20" d="M219.8,201.8c0.1,0,0.3,0,0.4,0c0.2,0,0.3,0.1,0.5,0.1c0.2,0.1,0.3,0.1,0.5,0.2c0.1,0.1,0.3,0.2,0.4,0.4
			s0.2,0.3,0.3,0.5s0.1,0.4,0.1,0.6c0,0.1,0,0.3,0,0.4c0,0.1-0.1,0.2-0.1,0.3s-0.1,0.2-0.1,0.3s-0.1,0.1-0.2,0.2
			c-0.1,0.1-0.3,0.3-0.5,0.3v0.1c0.1,0,0.2,0.1,0.3,0.2c0.1,0.1,0.2,0.2,0.3,0.3c0.1,0.1,0.2,0.3,0.3,0.5c0.1,0.2,0.1,0.4,0.1,0.7
			c0,0.3-0.1,0.6-0.2,0.9c-0.1,0.2-0.3,0.5-0.5,0.6c-0.2,0.2-0.4,0.3-0.7,0.4s-0.5,0.1-0.8,0.1h-2.7v-7H219.8z M219.8,204.8
			c0.2,0,0.3,0,0.4-0.1s0.3-0.1,0.4-0.2c0.1-0.1,0.2-0.2,0.3-0.3c0.1-0.1,0.1-0.3,0.1-0.5s0-0.4-0.1-0.5c-0.1-0.1-0.2-0.2-0.3-0.3
			s-0.2-0.1-0.4-0.2c-0.1,0-0.3-0.1-0.4-0.1h-1.6v2.1H219.8z M219.9,207.9c0.1,0,0.1,0,0.2,0c0.1,0,0.2,0,0.2-0.1
			c0.1,0,0.2-0.1,0.3-0.1s0.2-0.1,0.2-0.2c0.1-0.1,0.1-0.2,0.2-0.3c0-0.1,0.1-0.2,0.1-0.4c0-0.2,0-0.4-0.1-0.5s-0.2-0.2-0.3-0.3
			c-0.1-0.1-0.3-0.1-0.4-0.2c-0.1,0-0.3,0-0.4,0h-1.8v2.2H219.9z"></path>
<path fill="#231F20" d="M228.8,208.8h-4.5v-7h1v6.1h3.5V208.8z"></path>
<path fill="#231F20" d="M231.9,208.8h-1v-7h1V208.8z"></path>
<path fill="#231F20" d="M236.6,201.8c0.3,0,0.6,0,0.9,0.1c0.3,0.1,0.5,0.2,0.7,0.2c0.2,0.1,0.4,0.2,0.6,0.3l-0.6,0.8
			c-0.1,0-0.1-0.1-0.2-0.1c-0.1,0-0.2-0.1-0.2-0.1c-0.2-0.1-0.3-0.1-0.5-0.2c-0.2-0.1-0.4-0.1-0.6-0.1c-0.2,0-0.4,0-0.6,0.1
			c-0.2,0.1-0.3,0.1-0.4,0.2c-0.1,0.1-0.2,0.2-0.3,0.3s-0.1,0.3-0.1,0.4c0,0.1,0,0.2,0.1,0.4s0.1,0.2,0.2,0.3
			c0.1,0.1,0.3,0.2,0.5,0.3c0.2,0.1,0.5,0.2,0.8,0.2c0.3,0.1,0.6,0.2,0.9,0.3c0.3,0.1,0.5,0.2,0.7,0.4s0.4,0.3,0.5,0.6
			c0.1,0.2,0.2,0.5,0.2,0.7c0,0.3-0.1,0.6-0.2,0.8c-0.1,0.2-0.3,0.5-0.5,0.6c-0.2,0.2-0.5,0.3-0.8,0.4s-0.7,0.1-1.1,0.1
			c-0.4,0-0.8,0-1.1-0.1c-0.3-0.1-0.6-0.2-0.8-0.3c-0.1-0.1-0.2-0.1-0.3-0.2s-0.2-0.2-0.3-0.2l0.6-0.7c0.1,0.1,0.3,0.3,0.5,0.4
			c0.2,0.1,0.4,0.2,0.6,0.3s0.5,0.1,0.8,0.1c0.3,0,0.5,0,0.7-0.1s0.4-0.1,0.5-0.2c0.1-0.1,0.3-0.2,0.3-0.3s0.1-0.3,0.1-0.5
			c0-0.2,0-0.3-0.1-0.4c-0.1-0.1-0.2-0.2-0.3-0.3s-0.3-0.2-0.5-0.2c-0.2-0.1-0.5-0.1-0.7-0.2s-0.6-0.1-0.8-0.2s-0.5-0.2-0.7-0.4
			c-0.2-0.2-0.3-0.3-0.5-0.6c-0.1-0.2-0.2-0.5-0.2-0.8c0-0.3,0.1-0.6,0.2-0.9s0.3-0.5,0.5-0.6c0.2-0.2,0.5-0.3,0.8-0.4
			S236.3,201.8,236.6,201.8z"></path>
<path fill="#231F20" d="M246,208.8h-1v-3H242v3h-1v-7h1v3h3.1v-3h1V208.8z"></path>
	</g>
<polygon id="outline" fill="none" stroke="#FFDD15" stroke-width="2" stroke-miterlimit="10" points="259.3,100.5 189.9,100.5
		189.9,76.5 259.3,76.5 269.9,89.2 	"></polygon>
<g>
<path fill="#231F20" d="M204.5,85.2c0.3,0,0.6,0,0.8,0.1c0.2,0.1,0.4,0.2,0.6,0.3c0.2,0.1,0.3,0.2,0.5,0.4s0.2,0.3,0.3,0.4
			c0.1,0.2,0.2,0.3,0.2,0.4c0,0.1,0.1,0.3,0.1,0.4h-1c0-0.1-0.1-0.2-0.1-0.4s-0.2-0.2-0.3-0.4c-0.1-0.1-0.3-0.2-0.4-0.3
			s-0.4-0.1-0.6-0.1c-0.2,0-0.4,0-0.5,0.1c-0.2,0.1-0.3,0.1-0.4,0.2c-0.1,0.1-0.2,0.2-0.3,0.3c-0.1,0.1-0.1,0.2-0.2,0.3
			c0,0.1-0.1,0.2-0.1,0.3c0,0.1,0,0.2,0,0.2V90c0,0.1,0,0.2,0.1,0.4c0,0.2,0.1,0.3,0.2,0.5s0.3,0.3,0.5,0.4c0.2,0.1,0.5,0.2,0.8,0.2
			c0.2,0,0.4,0,0.6-0.1s0.3-0.2,0.4-0.3c0.1-0.1,0.2-0.2,0.3-0.4s0.1-0.2,0.1-0.4h1c0,0.1-0.1,0.3-0.1,0.4c0,0.1-0.1,0.3-0.2,0.4
			c-0.1,0.2-0.2,0.3-0.3,0.4s-0.3,0.3-0.5,0.4c-0.2,0.1-0.4,0.2-0.6,0.3c-0.2,0.1-0.5,0.1-0.8,0.1c-0.3,0-0.6,0-0.9-0.1
			c-0.3-0.1-0.5-0.2-0.7-0.3c-0.2-0.1-0.3-0.3-0.5-0.5s-0.2-0.3-0.3-0.5c-0.1-0.2-0.1-0.3-0.2-0.5c0-0.2,0-0.3,0-0.4v-2.4
			c0-0.1,0-0.3,0-0.4s0.1-0.3,0.2-0.5c0.1-0.2,0.2-0.3,0.3-0.5c0.1-0.2,0.3-0.3,0.5-0.5c0.2-0.1,0.4-0.2,0.7-0.3
			S204.1,85.2,204.5,85.2z"></path>
<path fill="#231F20" d="M208.8,87.7c0-0.1,0-0.3,0-0.5s0.1-0.4,0.2-0.5c0.1-0.2,0.2-0.4,0.3-0.5s0.3-0.3,0.5-0.5
			c0.2-0.1,0.4-0.2,0.7-0.3s0.6-0.1,0.9-0.1c0.3,0,0.6,0,0.9,0.1c0.3,0.1,0.5,0.2,0.7,0.3c0.2,0.1,0.3,0.3,0.5,0.5s0.2,0.4,0.3,0.5
			s0.1,0.4,0.2,0.5c0,0.2,0,0.3,0,0.5v2.2c0,0.1,0,0.3,0,0.5c0,0.2-0.1,0.3-0.2,0.5s-0.2,0.4-0.3,0.5s-0.3,0.3-0.5,0.5
			s-0.4,0.2-0.7,0.3c-0.3,0.1-0.6,0.1-0.9,0.1c-0.3,0-0.6,0-0.9-0.1c-0.3-0.1-0.5-0.2-0.7-0.3s-0.3-0.3-0.5-0.5s-0.2-0.4-0.3-0.5
			c-0.1-0.2-0.1-0.4-0.2-0.5s0-0.3,0-0.5V87.7z M212.9,87.6c0-0.1,0-0.3-0.1-0.5c0-0.2-0.1-0.3-0.2-0.5c-0.1-0.2-0.3-0.3-0.5-0.4
			c-0.2-0.1-0.5-0.2-0.8-0.2c-0.3,0-0.6,0.1-0.8,0.2c-0.2,0.1-0.4,0.2-0.5,0.4s-0.2,0.3-0.2,0.5c0,0.2-0.1,0.3-0.1,0.5v2.3
			c0,0.1,0,0.3,0.1,0.5c0,0.2,0.1,0.3,0.2,0.5c0.1,0.2,0.3,0.3,0.5,0.4c0.2,0.1,0.5,0.2,0.8,0.2c0.3,0,0.6-0.1,0.8-0.2
			c0.2-0.1,0.4-0.2,0.5-0.4c0.1-0.2,0.2-0.3,0.2-0.5c0-0.2,0.1-0.3,0.1-0.5V87.6z"></path>
<path fill="#231F20" d="M221.3,92.3h-0.9l-3.3-5.1H217v5.1h-1v-7h0.9l3.3,5.2h0.1v-5.2h1V92.3z"></path>
<path fill="#231F20" d="M229,92.3h-0.9l-3.3-5.1h-0.1v5.1h-1v-7h0.9l3.3,5.2h0.1v-5.2h1V92.3z"></path>
<path fill="#231F20" d="M235.4,89.2h-3v2.1h3.5v0.9h-4.5v-7h4.5v0.9h-3.5v2.1h3V89.2z"></path>
<path fill="#231F20" d="M240.4,85.2c0.3,0,0.6,0,0.8,0.1c0.2,0.1,0.4,0.2,0.6,0.3c0.2,0.1,0.3,0.2,0.5,0.4s0.2,0.3,0.3,0.4
			c0.1,0.2,0.2,0.3,0.2,0.4c0,0.1,0.1,0.3,0.1,0.4h-1c0-0.1-0.1-0.2-0.1-0.4s-0.2-0.2-0.3-0.4c-0.1-0.1-0.3-0.2-0.4-0.3
			s-0.4-0.1-0.6-0.1c-0.2,0-0.4,0-0.5,0.1c-0.2,0.1-0.3,0.1-0.4,0.2c-0.1,0.1-0.2,0.2-0.3,0.3c-0.1,0.1-0.1,0.2-0.2,0.3
			c0,0.1-0.1,0.2-0.1,0.3c0,0.1,0,0.2,0,0.2V90c0,0.1,0,0.2,0.1,0.4c0,0.2,0.1,0.3,0.2,0.5s0.3,0.3,0.5,0.4c0.2,0.1,0.5,0.2,0.8,0.2
			c0.2,0,0.4,0,0.6-0.1s0.3-0.2,0.4-0.3c0.1-0.1,0.2-0.2,0.3-0.4s0.1-0.2,0.1-0.4h1c0,0.1-0.1,0.3-0.1,0.4c0,0.1-0.1,0.3-0.2,0.4
			c-0.1,0.2-0.2,0.3-0.3,0.4s-0.3,0.3-0.5,0.4c-0.2,0.1-0.4,0.2-0.6,0.3c-0.2,0.1-0.5,0.1-0.8,0.1c-0.3,0-0.6,0-0.9-0.1
			c-0.3-0.1-0.5-0.2-0.7-0.3c-0.2-0.1-0.3-0.3-0.5-0.5s-0.2-0.3-0.3-0.5c-0.1-0.2-0.1-0.3-0.2-0.5c0-0.2,0-0.3,0-0.4v-2.4
			c0-0.1,0-0.3,0-0.4s0.1-0.3,0.2-0.5c0.1-0.2,0.2-0.3,0.3-0.5c0.1-0.2,0.3-0.3,0.5-0.5c0.2-0.1,0.4-0.2,0.7-0.3
			S240.1,85.2,240.4,85.2z"></path>
<path fill="#231F20" d="M249.4,86.2h-2v6.1h-1v-6.1h-2v-0.9h4.9V86.2z"></path>
	</g>
<path fill="#2CA01C" d="M35.6,63.5c-10.2,0-18.5,8.3-18.5,18.5s8.3,18.5,18.5,18.5c10.2,0,18.5-8.3,18.5-18.5S45.8,63.5,35.6,63.5z
		 M34.9,92.8h-2.5V77.2h-2.5c-2.7,0-4.8,2.2-4.8,4.8c0,2.7,2.2,4.8,4.8,4.8h0.7v2.6h-0.8c-4.1,0-7.5-3.3-7.5-7.5
		c0-4.1,3.3-7.5,7.5-7.5h5V92.8z M41.8,89.4h-5V71.1h2.5v15.7h2.5c2.7,0,4.8-2.2,4.8-4.8c0-2.7-2.2-4.8-4.8-4.8H41v-2.6h0.8
		c4.1,0,7.5,3.3,7.5,7.5C49.2,86,45.9,89.4,41.8,89.4z"></path>
<path fill="#009CDB" d="M97.6,70.7c-1.4,0-2.8,0.3-4,0.9c-1.2-2.5-3.8-4.3-6.8-4.3c-2.2,0-4.2,0.9-5.6,2.4c-1.6-2-4-3.3-6.7-3.3
		c-4.7,0-8.5,3.8-8.5,8.5c0,1.3,0.3,2.5,0.8,3.6c-2.2,1.2-3.7,3.6-3.7,6.4c0,4,3.3,7.3,7.3,7.3c0.6,0,1.1-0.1,1.6-0.2
		c1.2,3,4.1,5,7.5,5c3.3,0,6.1-1.9,7.4-4.7c0.9,0.3,1.8,0.5,2.8,0.5c2.7,0,5-1.4,6.4-3.5c0.5,0.1,1.1,0.1,1.7,0.1
		c5.2,0,9.4-4.2,9.4-9.4C107,74.9,102.8,70.7,97.6,70.7z"></path>
<g>
<path fill="#FFFFFF" d="M150.8,101h-30c-2.1,0-3.7-1.7-3.7-3.7v-30c0-2.1,1.7-3.7,3.7-3.7h30c2.1,0,3.7,1.7,3.7,3.7v30
			C154.6,99.3,152.9,101,150.8,101z"></path>
<path fill="#F7991C" d="M154.6,67.9v-0.8c0-2-1.6-3.6-3.6-3.6h-30.2c-2,0-3.6,1.6-3.6,3.6v14.1v3.5l8-8l10.8,10.8l18.6-18.8V67.9z
			"></path>
<path fill="#F05721" d="M154.6,79.6v17.8c0,2-1.6,3.6-3.6,3.6h-30.2c-2,0-3.6-1.6-3.6-3.6v-1.7l8-8l10.8,10.8L154.6,79.6z"></path>
<polygon fill="#F7991C" points="130.5,82.2 125.1,87.6 130.5,93 		"></polygon>
	</g>
</g>
</svg>