<svg xmlns="http://www.w3.org/2000/svg" viewBox="0 0 404.435 277.135"><title>svg_it_03</title><path d="M71.7,34a41.6,41.6,0,1,0,41.6,41.6A41.568,41.568,0,0,0,71.7,34h0m0,2.1A39.4,39.4,0,1,1,32.3,75.5,39.413,39.413,0,0,1,71.7,36.1" transform="translate(-1.832 -1.032)" fill="#010101"/><path d="M74.4,27.2V74.9l37.4,24.6h0.1a46.353,46.353,0,0,0,6.6-24.4C118.3,50.2,97,29.5,74.4,27.2" transform="translate(-1.832 -1.032)" fill="#fff"/><path d="M405.3,277.1H2.9V2.1H405.2v275h0.1Zm-11.8-11.8H145.8V145.5H393.5V265.3Zm0-197.7H275V13.5H393.5V67.6Zm0,66.1H275V79.6H393.5v54.1h0Zm-130.1.2H144.9V13.5H263.4V133.9h0ZM132.9,265.3H14.4V211.4H132.9v53.9Zm0-65.8H14.4V145.6H132.9v53.9h0Zm0-65.6H14.4V13.5H132.9V133.9h0Z" transform="translate(-1.832 -1.032)" fill="none" stroke="#010101" stroke-miterlimit="10" stroke-width="2.135"/><path d="M157.6,237.5H381.7M157.6,221.4H381.7m-224.1-16H381.7m-224.1-16H381.7m-224.1-16H381.7m-224.1-16H381.7" transform="translate(-1.832 -1.032)" fill="none" stroke="#e6e5e8" stroke-miterlimit="10" stroke-width="2.135"/><line x1="155.768" y1="120.568" x2="249.668" y2="120.568" fill="none" stroke="#010101" stroke-miterlimit="10" stroke-width="2.135"/><path d="M157.6,105.6h93.9m-93.9-16h93.9m-93.9-16h93.9m-93.9-16h93.9m-93.9-16h93.9M157.6,25.5h93.9" transform="translate(-1.832 -1.032)" fill="none" stroke="#e6e5e8" stroke-miterlimit="10" stroke-width="2.135"/><line x1="167.568" y1="252.568" x2="167.568" y2="224.168" fill="none" stroke="#f2c717" stroke-miterlimit="10" stroke-width="2.135"/><line x1="175.368" y1="252.568" x2="175.368" y2="211.368" fill="none" stroke="#010101" stroke-miterlimit="10" stroke-width="2.135"/><line x1="195.168" y1="252.568" x2="195.168" y2="198.768" fill="none" stroke="#f2c717" stroke-miterlimit="10" stroke-width="2.135"/><line x1="202.868" y1="252.568" x2="202.868" y2="180.668" fill="none" stroke="#010101" stroke-miterlimit="10" stroke-width="2.135"/><line x1="222.668" y1="252.568" x2="222.668" y2="209.668" fill="none" stroke="#f2c717" stroke-miterlimit="10" stroke-width="2.135"/><line x1="230.368" y1="252.568" x2="230.368" y2="200.868" fill="none" stroke="#010101" stroke-miterlimit="10" stroke-width="2.135"/><line x1="250.168" y1="252.568" x2="250.168" y2="167.668" fill="none" stroke="#f2c717" stroke-miterlimit="10" stroke-width="2.135"/><line x1="257.968" y1="252.568" x2="257.968" y2="156.368" fill="none" stroke="#010101" stroke-miterlimit="10" stroke-width="2.135"/><line x1="277.668" y1="252.568" x2="277.668" y2="178.068" fill="none" stroke="#f2c717" stroke-miterlimit="10" stroke-width="2.135"/><line x1="285.468" y1="252.568" x2="285.468" y2="204.368" fill="none" stroke="#010101" stroke-miterlimit="10" stroke-width="2.135"/><line x1="24.368" y1="156.168" x2="98.868" y2="156.168" fill="none" stroke="#f2c717" stroke-miterlimit="10" stroke-width="2.135"/><line x1="24.368" y1="166.368" x2="72.668" y2="166.368" fill="none" stroke="#010101" stroke-miterlimit="10" stroke-width="2.135"/><line x1="24.368" y1="176.568" x2="85.168" y2="176.568" fill="none" stroke="#f2c717" stroke-miterlimit="10" stroke-width="2.135"/><line x1="24.368" y1="186.868" x2="113.568" y2="186.868" fill="none" stroke="#010101" stroke-miterlimit="10" stroke-width="2.135"/><line x1="305.268" y1="252.568" x2="305.268" y2="233.068" fill="none" stroke="#f2c717" stroke-miterlimit="10" stroke-width="2.135"/><line x1="312.968" y1="252.568" x2="312.968" y2="225.668" fill="none" stroke="#010101" stroke-miterlimit="10" stroke-width="2.135"/><line x1="332.768" y1="252.568" x2="332.768" y2="204.468" fill="none" stroke="#f2c717" stroke-miterlimit="10" stroke-width="2.135"/><line x1="340.468" y1="252.568" x2="340.468" y2="216.668" fill="none" stroke="#010101" stroke-miterlimit="10" stroke-width="2.135"/><line x1="360.268" y1="252.568" x2="360.268" y2="182.668" fill="none" stroke="#f2c717" stroke-miterlimit="10" stroke-width="2.135"/><path d="M157.6,253.5H381.7m-11.8.1V169.7" transform="translate(-1.832 -1.032)" fill="none" stroke="#010101" stroke-miterlimit="10" stroke-width="2.135"/><path d="M89.4,226.3a9.45,9.45,0,1,0,9.4,9.5h0a9.411,9.411,0,0,0-9.4-9.5m0,2.1a7.3,7.3,0,1,1-7.3,7.3h0a7.34,7.34,0,0,1,7.3-7.3" transform="translate(-1.832 -1.032)" fill="#f2c717"/><path d="M114,223.4a6.9,6.9,0,1,0,6.9,6.9h0a6.913,6.913,0,0,0-6.9-6.9h0m0,2.1a4.7,4.7,0,1,1-4.7,4.7h0a4.572,4.572,0,0,1,4.7-4.7" transform="translate(-1.832 -1.032)" fill="#f2c717"/><path d="M31.3,243.3a5.1,5.1,0,1,0,5.1,5.1h0a5.058,5.058,0,0,0-5.1-5.1m0,2.1a3.009,3.009,0,0,1,3,3,2.946,2.946,0,0,1-3,3,3.009,3.009,0,0,1-3-3h0a3.075,3.075,0,0,1,3-3" transform="translate(-1.832 -1.032)" fill="#010101"/><path d="M48.4,223.4a10.2,10.2,0,1,0,10.2,10.2h0a10.179,10.179,0,0,0-10.2-10.2h0m0,2.1a8.1,8.1,0,1,1-8.1,8.1h0a8.066,8.066,0,0,1,8.1-8.1" transform="translate(-1.832 -1.032)" fill="#f2c717"/><path d="M100.7,237.5a7.8,7.8,0,1,0,7.8,7.8h0a7.747,7.747,0,0,0-7.8-7.8m0,2.1a5.6,5.6,0,1,1-5.6,5.6h0a5.591,5.591,0,0,1,5.6-5.6" transform="translate(-1.832 -1.032)" fill="#010101"/><path d="M60.8,227.7a12.9,12.9,0,1,0,12.9,12.9h0a12.931,12.931,0,0,0-12.9-12.9h0m0,2.1a10.7,10.7,0,1,1-10.7,10.7h0a10.777,10.777,0,0,1,10.7-10.7" transform="translate(-1.832 -1.032)" fill="#010101"/><path d="M315.5,25.3a15.2,15.2,0,1,0,15.2,15.2,15.193,15.193,0,0,0-15.2-15.2h0m0.1,2.1a13.1,13.1,0,1,1-13.1,13.1,13.145,13.145,0,0,1,13.1-13.1" transform="translate(-1.832 -1.032)" fill="#010101"/><path d="M352.9,25.3a15.2,15.2,0,1,0,15.2,15.2,15.193,15.193,0,0,0-15.2-15.2h0m0,2.1a13.1,13.1,0,1,1-13.1,13.1,13.145,13.145,0,0,1,13.1-13.1" transform="translate(-1.832 -1.032)" fill="#010101"/><polyline points="167.568 104.568 191.068 72.668 214.468 88.568 237.868 40.568" fill="none" stroke="#f2c717" stroke-miterlimit="10" stroke-width="2.135"/><path d="M169.4,110.1a4.5,4.5,0,1,1,4.5-4.5h0a4.481,4.481,0,0,1-4.5,4.5" transform="translate(-1.832 -1.032)" fill="#fff"/><path d="M169.4,100a5.6,5.6,0,1,0,5.6,5.6,5.591,5.591,0,0,0-5.6-5.6m0,2.2a3.4,3.4,0,1,1-3.4,3.4h0a3.372,3.372,0,0,1,3.4-3.4" transform="translate(-1.832 -1.032)" fill="#010101"/><path d="M239.7,46.1a4.5,4.5,0,1,1,4.5-4.5,4.613,4.613,0,0,1-4.5,4.5" transform="translate(-1.832 -1.032)" fill="#fff"/><path d="M239.7,36a5.6,5.6,0,1,0,5.6,5.6h0a5.591,5.591,0,0,0-5.6-5.6m0,2.1a3.4,3.4,0,1,1-3.4,3.4h0a3.5,3.5,0,0,1,3.4-3.4" transform="translate(-1.832 -1.032)" fill="#010101"/><path d="M216.3,94.1a4.5,4.5,0,1,1,4.5-4.5,4.481,4.481,0,0,1-4.5,4.5" transform="translate(-1.832 -1.032)" fill="#fff"/><path d="M216.3,84a5.6,5.6,0,1,0,5.6,5.6h0a5.591,5.591,0,0,0-5.6-5.6m0,2.2a3.4,3.4,0,1,1-3.4,3.4h0a3.372,3.372,0,0,1,3.4-3.4" transform="translate(-1.832 -1.032)" fill="#010101"/><path d="M192.9,78.2a4.5,4.5,0,1,1,4.5-4.5h0a4.546,4.546,0,0,1-4.5,4.5" transform="translate(-1.832 -1.032)" fill="#fff"/><path d="M192.9,68.1a5.6,5.6,0,1,0,5.6,5.6h0a5.723,5.723,0,0,0-5.6-5.6m0,2.2a3.4,3.4,0,1,1-3.4,3.4h0a3.311,3.311,0,0,1,3.4-3.4" transform="translate(-1.832 -1.032)" fill="#010101"/><path d="M302.1,121.6c0-16.7,16.4-30.2,36.6-30.2,11.1,0,21,4.1,27.7,10.5" transform="translate(-1.832 -1.032)" fill="none" stroke="#f2c717" stroke-miterlimit="10" stroke-width="2.562"/><path d="M106.4,97.6L73,75.7V32.3M32,75.7H73" transform="translate(-1.832 -1.032)" fill="none" stroke="#010101" stroke-miterlimit="10" stroke-width="2.135"/><path d="M71.7,31.9a43.7,43.7,0,1,0,43.7,43.7A43.681,43.681,0,0,0,71.7,31.9m0,2.1A41.6,41.6,0,1,1,30.1,75.6,41.568,41.568,0,0,1,71.7,34h0" transform="translate(-1.832 -1.032)" fill="#fff"/><path d="M112.7,96.4c6.9-14.5,6.7-29.7-.4-42.8A47.176,47.176,0,0,0,77,29.8V73.4Zm-0.8,3.3L74.3,75V26.9h0.3c26.4,2.4,45.7,22.9,45.9,48.6a48.057,48.057,0,0,1-6.9,25l-0.1.2Z" transform="translate(-1.832 -1.032)" fill="#f2c717"/><path d="M77.3,73.3V30.1a46.762,46.762,0,0,1,34.8,23.6c7.1,12.9,7.3,27.9.6,42.3ZM74.1,26.6V75.1l0.2,0.2,37.4,24.6,1.3,0.9,0.4,0.3,0.3-.4a47.481,47.481,0,0,0,6.9-25.1,48.711,48.711,0,0,0-12.9-33c-8.5-9.2-20-14.7-33.3-15.9Zm38.8,70.2c15.5-32.3-5.9-63.6-36.1-67.3v44ZM74.6,27.1c27.2,2.5,45.4,23.3,45.7,48.3a45.967,45.967,0,0,1-6.9,24.8l-1.3-.9L74.6,74.8V27.1Z" transform="translate(-1.832 -1.032)" fill="#fff"/></svg>