<svg xmlns="http://www.w3.org/2000/svg" viewBox="0 0 399.131 277.131">
  <circle cx="68.866" cy="100.966" r="13" fill="none" stroke="#f2c717" stroke-miterlimit="10" stroke-width="2.131"/>
  <path d="M48.4,124.1a7.5,7.5,0,1,1-7.5-7.5,7.49,7.49,0,0,1,7.5,7.5h0Zm108-38.3a7.5,7.5,0,1,1-7.5-7.5,7.49,7.49,0,0,1,7.5,7.5h0ZM75.9,38.5a8.4,8.4,0,1,1-8.4-8.4,8.386,8.386,0,0,1,8.4,8.4h0Zm39.4,44A24.8,24.8,0,1,1,90.5,57.7a24.8,24.8,0,0,1,24.8,24.8h0Z" transform="translate(-1.834 -1.034)" fill="none" stroke="#010101" stroke-miterlimit="10" stroke-width="2.131"/>
  <path d="M195.3,261l31.8-61.9,31.8,37.2,28.6-41.9M136,42.5a6.7,6.7,0,1,1-6.7-6.7,6.7,6.7,0,0,1,6.7,6.7h0ZM56.9,61.6A14.7,14.7,0,1,1,42.2,46.9h0A14.66,14.66,0,0,1,56.9,61.6Zm87.2,51a14.7,14.7,0,1,1-14.7-14.7,14.66,14.66,0,0,1,14.7,14.7h0Z" transform="translate(-1.834 -1.034)" fill="none" stroke="#f2c717" stroke-miterlimit="10" stroke-width="2.131"/>
  <path d="M199.7,261a4.4,4.4,0,1,1-4.4-4.4,4.439,4.439,0,0,1,4.4,4.4h0" transform="translate(-1.834 -1.034)" fill="#fff"/>
  <circle cx="193.466" cy="259.966" r="4.4" fill="none" stroke="#010101" stroke-miterlimit="10" stroke-width="2.131"/>
  <path d="M231.6,199.2a4.4,4.4,0,1,1-4.4-4.4h0a4.375,4.375,0,0,1,4.4,4.4" transform="translate(-1.834 -1.034)" fill="#fff"/>
  <circle cx="225.266" cy="198.166" r="4.4" fill="none" stroke="#010101" stroke-miterlimit="10" stroke-width="2.131"/>
  <path d="M263.3,236.4a4.4,4.4,0,1,1-4.4-4.4,4.255,4.255,0,0,1,4.4,4.4" transform="translate(-1.834 -1.034)" fill="#fff"/>
  <circle cx="257.066" cy="235.366" r="4.4" fill="none" stroke="#010101" stroke-miterlimit="10" stroke-width="2.131"/>
  <path d="M27.6,192.5h7.9c13.4,0,9.8,17.7,22.7,17.7,17,0,11.4-33.4,25.6-33.4,12.4,0,8.7,33.2,22.7,33.2s11.4-23.3,22.7-23.3c11.9,0,6.8,15.3,20.1,15.3h7.3m13,75H14.4V241.1H169.7L169.6,277h0Zm0-47.2H14.4V157.4H169.7l-0.1,72.4h0ZM348.2,277H2.9V2.1H348.2V277h0ZM336.4,145.7H181.5V13.5H336.4V145.7Zm-166.8,0H14.4V13.5H169.7l-0.1,132.2h0ZM336.4,277H181.5V157.5H336.4V277Z" transform="translate(-1.834 -1.034)" fill="none" stroke="#010101" stroke-miterlimit="10" stroke-width="2.131"/>
  <path d="M25.9,254.9H90.2M25.9,267.3H144.1m127.3-154V49m37.4,64.3V92m12.5,21.3v-44m-37.4,44V29.2m12.5,84.1V41.1" transform="translate(-1.834 -1.034)" fill="none" stroke="#f2c717" stroke-miterlimit="10" stroke-width="2.131"/>
  <path d="M246.5,114.5v21.3m12.4-22.5v6.6" transform="translate(-1.834 -1.034)" fill="none" stroke="#010101" stroke-miterlimit="10" stroke-width="2.131"/>
  <line x1="232.166" y1="90.566" x2="232.166" y2="111.766" fill="none" stroke="#f2c717" stroke-miterlimit="10" stroke-width="2.131"/>
  <path d="M196.6,114.5v10.7M209,114.5v15.9" transform="translate(-1.834 -1.034)" fill="none" stroke="#010101" stroke-miterlimit="10" stroke-width="2.131"/>
  <line x1="219.666" y1="105.266" x2="219.666" y2="110.566" fill="none" stroke="#f2c717" stroke-miterlimit="10" stroke-width="2.131"/>
  <rect x="257.066" y="235.366" width="140.4" height="40.7" fill="#fff"/>
  <rect x="257.066" y="235.366" width="140.4" height="40.7" fill="none" stroke="#010101" stroke-miterlimit="10" stroke-width="2.131"/>
  <path d="M396.5,225.2a66.875,66.875,0,0,0,3.4-21.3,70.5,70.5,0,0,0-141-.1,64.2,64.2,0,0,0,3.4,21.3l134.2,0.1h0Z" transform="translate(-1.834 -1.034)" fill="#fff"/>
  <path d="M396.5,225.2a66.875,66.875,0,0,0,3.4-21.3,70.5,70.5,0,0,0-141-.1,64.2,64.2,0,0,0,3.4,21.3Z" transform="translate(-1.834 -1.034)" fill="none" stroke="#010101" stroke-miterlimit="10" stroke-width="2.131"/>
  <path d="M334.5,211.4a4.8,4.8,0,1,1-9.6,0,4.8,4.8,0,1,1,9.6,0" transform="translate(-1.834 -1.034)" fill="#f2c717"/>
  <path d="M298.5,179.2l-14.1-14.1m77.2,14.1,14.1-14.1m-85.6,42.1-20-1.7m99.8,1.7,20-1.7M329.6,163V143.2" transform="translate(-1.834 -1.034)" fill="none" stroke="#010101" stroke-miterlimit="10" stroke-width="2.131"/>
  <line x1="327.566" y1="210.366" x2="382.166" y2="200.066" fill="none" stroke="#f2c717" stroke-miterlimit="10" stroke-width="2.131"/>
  <polygon points="380.866 205.366 388.966 198.566 378.866 195.066 380.866 205.366" fill="#f2c717"/>
  <g style="isolation:isolate">
    <path d="M285.3,263.1l2.7-.3a4.9,4.9,0,0,0,1.3,2.8,3.656,3.656,0,0,0,2.5.9,4.383,4.383,0,0,0,2.3-.6,4.1,4.1,0,0,0,1.6-1.6,11.6,11.6,0,0,0,1.1-2.7,13.425,13.425,0,0,0,.4-3.5v-0.6a6.936,6.936,0,0,1-2.3,2.2,6.094,6.094,0,0,1-3.2.8,6.662,6.662,0,0,1-4.9-2.1,7.734,7.734,0,0,1-2-5.5,8.025,8.025,0,0,1,2.1-5.7,7.01,7.01,0,0,1,5.2-2.1,7.3,7.3,0,0,1,4.1,1.2,7.557,7.557,0,0,1,2.8,3.5,18.264,18.264,0,0,1,1,6.6,20.8,20.8,0,0,1-1,7.2,7.62,7.62,0,0,1-2.9,4,7.749,7.749,0,0,1-4.5,1.4,6.347,6.347,0,0,1-4.4-1.5A9.363,9.363,0,0,1,285.3,263.1Zm11.8-10.3a5.58,5.58,0,0,0-1.3-3.9,3.918,3.918,0,0,0-3.1-1.4,4.272,4.272,0,0,0-3.3,1.5,5.9,5.9,0,0,0-1.4,4,4.835,4.835,0,0,0,1.3,3.6,4.534,4.534,0,0,0,3.3,1.4,4.158,4.158,0,0,0,3.2-1.4A5.167,5.167,0,0,0,297.1,252.8Z" transform="translate(-1.834 -1.034)" fill="#010101"/>
    <path d="M303.4,263.1l2.7-.3a4.9,4.9,0,0,0,1.3,2.8,3.656,3.656,0,0,0,2.5.9,4.383,4.383,0,0,0,2.3-.6,4.1,4.1,0,0,0,1.6-1.6,11.6,11.6,0,0,0,1.1-2.7,13.425,13.425,0,0,0,.4-3.5v-0.6a6.936,6.936,0,0,1-2.3,2.2,6.094,6.094,0,0,1-3.2.8,6.662,6.662,0,0,1-4.9-2.1,7.734,7.734,0,0,1-2-5.5,8.025,8.025,0,0,1,2.1-5.7,7.01,7.01,0,0,1,5.2-2.1,7.3,7.3,0,0,1,4.1,1.2,7.557,7.557,0,0,1,2.8,3.5,18.264,18.264,0,0,1,1,6.6,20.8,20.8,0,0,1-1,7.2,7.62,7.62,0,0,1-2.9,4,7.749,7.749,0,0,1-4.5,1.4,6.347,6.347,0,0,1-4.4-1.5A9.363,9.363,0,0,1,303.4,263.1Zm11.8-10.3a5.58,5.58,0,0,0-1.3-3.9,3.918,3.918,0,0,0-3.1-1.4,4.272,4.272,0,0,0-3.3,1.5,5.9,5.9,0,0,0-1.4,4,4.835,4.835,0,0,0,1.3,3.6,4.534,4.534,0,0,0,3.3,1.4,4.158,4.158,0,0,0,3.2-1.4A5.167,5.167,0,0,0,315.2,252.8Z" transform="translate(-1.834 -1.034)" fill="#010101"/>
    <path d="M322.8,268.5v-3.2H326v3.2h-3.2Z" transform="translate(-1.834 -1.034)" fill="#010101"/>
    <path d="M330.6,263.1l2.7-.3a4.9,4.9,0,0,0,1.3,2.8,3.656,3.656,0,0,0,2.5.9,4.383,4.383,0,0,0,2.3-.6,4.1,4.1,0,0,0,1.6-1.6,11.6,11.6,0,0,0,1.1-2.7,13.425,13.425,0,0,0,.4-3.5v-0.6a6.936,6.936,0,0,1-2.3,2.2,6.094,6.094,0,0,1-3.2.8,6.662,6.662,0,0,1-4.9-2.1,7.734,7.734,0,0,1-2-5.5,8.025,8.025,0,0,1,2.1-5.7,7.01,7.01,0,0,1,5.2-2.1,7.3,7.3,0,0,1,4.1,1.2,7.557,7.557,0,0,1,2.8,3.5,18.264,18.264,0,0,1,1,6.6,20.8,20.8,0,0,1-1,7.2,7.62,7.62,0,0,1-2.9,4,7.749,7.749,0,0,1-4.5,1.4,6.347,6.347,0,0,1-4.4-1.5A7.737,7.737,0,0,1,330.6,263.1Zm11.8-10.3a5.58,5.58,0,0,0-1.3-3.9,3.918,3.918,0,0,0-3.1-1.4,4.272,4.272,0,0,0-3.3,1.5,5.9,5.9,0,0,0-1.4,4,4.835,4.835,0,0,0,1.3,3.6,4.534,4.534,0,0,0,3.3,1.4,4.158,4.158,0,0,0,3.2-1.4A5.622,5.622,0,0,0,342.4,252.8Z" transform="translate(-1.834 -1.034)" fill="#010101"/>
    <path d="M348.9,250.8a6.96,6.96,0,0,1,1.2-4.2,3.966,3.966,0,0,1,3.6-1.7,4.375,4.375,0,0,1,3.6,1.6c1,1,1.4,2.6,1.4,4.6a6.547,6.547,0,0,1-1.4,4.5,4.649,4.649,0,0,1-3.6,1.6,4.312,4.312,0,0,1-3.5-1.6A8.07,8.07,0,0,1,348.9,250.8Zm5-4.1a2.271,2.271,0,0,0-1.8.9c-0.5.6-.7,1.7-0.7,3.4a4.884,4.884,0,0,0,.7,3.1,2.25,2.25,0,0,0,3.6,0,7.893,7.893,0,0,0,0-6.5A2.271,2.271,0,0,0,353.9,246.7Zm0,22.6,12.8-24.6H369l-12.7,24.6h-2.4ZM364,263a6.96,6.96,0,0,1,1.2-4.2,3.966,3.966,0,0,1,3.6-1.7,4.375,4.375,0,0,1,3.6,1.6c1,1,1.4,2.6,1.4,4.6a6.547,6.547,0,0,1-1.4,4.5,4.649,4.649,0,0,1-3.6,1.6,4.312,4.312,0,0,1-3.5-1.6A8.07,8.07,0,0,1,364,263Zm5-4.1a2.271,2.271,0,0,0-1.8.9c-0.5.6-.7,1.7-0.7,3.4a4.884,4.884,0,0,0,.7,3.1,2.25,2.25,0,0,0,3.6,0,7.893,7.893,0,0,0,0-6.5A2.017,2.017,0,0,0,369,258.9Z" transform="translate(-1.834 -1.034)" fill="#010101"/>
  </g>
</svg>