<svg xmlns="http://www.w3.org/2000/svg" viewBox="0 0 392.246 277.246">
  <path d="M355.8,277.1H2.9V26.6H355.7V277.1h0.1ZM134,265.2H14.5V144.4H134V265.2h0Z" transform="translate(-1.879 -0.875)" fill="none" stroke="#010101" stroke-miterlimit="10" stroke-width="2.042"/>
  <path d="M343.6,265.8H147V144.4H343.7V265.7h-0.1v0.1Zm0-133.1H224.1V40.8H343.5v91.9h0.1Z" transform="translate(-1.879 -0.875)" fill="none" stroke="#010101" stroke-miterlimit="10" stroke-width="2.042"/>
  <line x1="24.621" y1="155.325" x2="69.821" y2="155.325" fill="none" stroke="#f2c717" stroke-miterlimit="10" stroke-width="2.042"/>
  <path d="M237.1,59.7h94.1M26.5,161.4h78.1" transform="translate(-1.879 -0.875)" fill="none" stroke="#010101" stroke-miterlimit="10" stroke-width="2.042"/>
  <line x1="24.621" y1="173.725" x2="85.421" y2="173.725" fill="none" stroke="#f2c717" stroke-miterlimit="10" stroke-width="2.042"/>
  <line x1="24.621" y1="178.925" x2="50.621" y2="178.925" fill="none" stroke="#010101" stroke-miterlimit="10" stroke-width="2.042"/>
  <line x1="24.621" y1="192.125" x2="111.321" y2="192.125" fill="none" stroke="#f2c717" stroke-miterlimit="10" stroke-width="2.042"/>
  <line x1="24.621" y1="197.325" x2="117.621" y2="197.325" fill="none" stroke="#010101" stroke-miterlimit="10" stroke-width="2.042"/>
  <line x1="24.621" y1="210.525" x2="89.921" y2="210.525" fill="none" stroke="#f2c717" stroke-miterlimit="10" stroke-width="2.042"/>
  <line x1="24.621" y1="215.725" x2="93.621" y2="215.725" fill="none" stroke="#010101" stroke-miterlimit="10" stroke-width="2.042"/>
  <line x1="24.621" y1="229.025" x2="43.021" y2="229.025" fill="none" stroke="#f2c717" stroke-miterlimit="10" stroke-width="2.042"/>
  <line x1="24.621" y1="234.225" x2="59.121" y2="234.225" fill="none" stroke="#010101" stroke-miterlimit="10" stroke-width="2.042"/>
  <line x1="24.621" y1="247.425" x2="99.721" y2="247.425" fill="none" stroke="#f2c717" stroke-miterlimit="10" stroke-width="2.042"/>
  <path d="M317.3,253.5V226.3M26.5,253.5H75.1" transform="translate(-1.879 -0.875)" fill="none" stroke="#010101" stroke-miterlimit="10" stroke-width="2.042"/>
  <line x1="335.421" y1="252.525" x2="335.421" y2="204.025" fill="none" stroke="#f2c717" stroke-miterlimit="10" stroke-width="2.042"/>
  <line x1="343.221" y1="252.525" x2="343.221" y2="216.225" fill="none" stroke="#010101" stroke-miterlimit="10" stroke-width="2.042"/>
  <line x1="363.221" y1="252.525" x2="363.221" y2="182.025" fill="none" stroke="#f2c717" stroke-miterlimit="10" stroke-width="2.042"/>
  <line x1="371.021" y1="252.525" x2="371.021" y2="167.925" fill="none" stroke="#010101" stroke-miterlimit="10" stroke-width="2.042"/>
  <path d="M260.3,73.2a23.2,23.2,0,1,0,23.2,23.2,23.217,23.217,0,0,0-23.2-23.2h0m0,2.6a20.6,20.6,0,1,1-20.6,20.6h0a20.635,20.635,0,0,1,20.6-20.6" transform="translate(-1.879 -0.875)" fill="#f2c717"/>
  <path d="M307,73.2a23.2,23.2,0,1,0,23.2,23.2A23.217,23.217,0,0,0,307,73.2h0m0,2.2a21.1,21.1,0,1,1-21.1,21.1A21.1,21.1,0,0,1,307,75.4" transform="translate(-1.879 -0.875)" fill="#010101"/>
  <path d="M193.4,163.3a9.5,9.5,0,1,0,9.5,9.5h0a9.56,9.56,0,0,0-9.5-9.5m0,2.2a7.4,7.4,0,1,1-7.4,7.4,7.383,7.383,0,0,1,7.4-7.4" transform="translate(-1.879 -0.875)" fill="#f2c717"/>
  <path d="M228.7,204.5a9.5,9.5,0,1,0,9.5,9.5,9.5,9.5,0,0,0-9.5-9.5m0,2.2a7.4,7.4,0,1,1-7.4,7.4,7.383,7.383,0,0,1,7.4-7.4" transform="translate(-1.879 -0.875)" fill="#f2c717"/>
  <path d="M278.2,160.6a14,14,0,1,0,14,14h0a14.041,14.041,0,0,0-14-14m0,2.2a11.8,11.8,0,1,1-11.8,11.8h0a11.822,11.822,0,0,1,11.8-11.8" transform="translate(-1.879 -0.875)" fill="#f2c717"/>
  <path d="M222.5,180.6a6.794,6.794,0,1,0,2.9.6,7.173,7.173,0,0,0-2.9-.6m0,2.1h0a4.8,4.8,0,0,1,4.8,4.8,6.465,6.465,0,0,1-.4,2,4.761,4.761,0,0,1-9.1-2,6.465,6.465,0,0,1,.4-2,4.823,4.823,0,0,1,4.3-2.8" transform="translate(-1.879 -0.875)" fill="#f2c717"/>
  <path d="M193.4,231a6.95,6.95,0,1,0,6.9,7,6.978,6.978,0,0,0-4-6.3,5.918,5.918,0,0,0-2.9-.7m0,2.1h0a4.867,4.867,0,0,1,4.8,4.8,6.465,6.465,0,0,1-.4,2,4.761,4.761,0,0,1-9.1-2,6.465,6.465,0,0,1,.4-2,4.61,4.61,0,0,1,4.3-2.8" transform="translate(-1.879 -0.875)" fill="#f2c717"/>
  <path d="M261.1,218.1a6.95,6.95,0,1,0,6.9,7,6.978,6.978,0,0,0-4-6.3,5.918,5.918,0,0,0-2.9-.7m0,2.1h0a4.8,4.8,0,0,1,4.8,4.8,6.466,6.466,0,0,1-.4,2,4.761,4.761,0,0,1-9.1-2,6.466,6.466,0,0,1,.4-2,4.61,4.61,0,0,1,4.3-2.8" transform="translate(-1.879 -0.875)" fill="#f2c717"/>
  <path d="M243.4,199.4a5.1,5.1,0,1,0,5.1,5.1,5.121,5.121,0,0,0-5.1-5.1h0m0,2.1a3.009,3.009,0,0,1,3,3,3,3,0,0,1-6,0,3.009,3.009,0,0,1,3-3" transform="translate(-1.879 -0.875)" fill="#010101"/>
  <path d="M221.2,229.9a5.1,5.1,0,1,0,5.1,5.1,5.121,5.121,0,0,0-5.1-5.1h0m0,2.1a3,3,0,1,1-3,3,3.076,3.076,0,0,1,3-3" transform="translate(-1.879 -0.875)" fill="#010101"/>
  <path d="M195.9,221.7a5.1,5.1,0,1,0,5.1,5.1,5.188,5.188,0,0,0-5.1-5.1h0m0,2.2a3.009,3.009,0,0,1,3,3,3,3,0,0,1-6,0,3.009,3.009,0,0,1,3-3" transform="translate(-1.879 -0.875)" fill="#010101"/>
  <path d="M169.1,232.8a10.3,10.3,0,1,0,10.3,10.3,10.285,10.285,0,0,0-10.3-10.3h0m0,2.2a8.1,8.1,0,1,1-8.1,8.1,8.066,8.066,0,0,1,8.1-8.1" transform="translate(-1.879 -0.875)" fill="#f2c717"/>
  <path d="M174.9,211.2a7.8,7.8,0,1,0,7.8,7.8,7.685,7.685,0,0,0-7.8-7.8m0,2.1a5.7,5.7,0,0,1,5.7,5.7,5.7,5.7,0,0,1-11.4,0h0a5.83,5.83,0,0,1,5.7-5.7" transform="translate(-1.879 -0.875)" fill="#010101"/>
  <path d="M200.2,190.3a13,13,0,1,0,13,13h0a12.974,12.974,0,0,0-13-13m0,2.2a10.8,10.8,0,1,1-10.8,10.8,10.755,10.755,0,0,1,10.8-10.8" transform="translate(-1.879 -0.875)" fill="#010101"/>
  <path d="M236.3,159a13,13,0,1,0,13,13h0a12.974,12.974,0,0,0-13-13m0,2.1a10.8,10.8,0,1,1-10.8,10.8,10.884,10.884,0,0,1,10.8-10.8" transform="translate(-1.879 -0.875)" fill="#010101"/>
  <path d="M288.1,177.4a20.1,20.1,0,1,0,20.1,20.1h0a20.1,20.1,0,0,0-20.1-20.1m0,2.1a17.9,17.9,0,1,1-17.9,17.9h0a17.946,17.946,0,0,1,17.9-17.9" transform="translate(-1.879 -0.875)" fill="#010101"/>
  <path d="M328.5,171a4.5,4.5,0,1,1,4.5-4.5,4.481,4.481,0,0,1-4.5,4.5" transform="translate(-1.879 -0.875)" fill="#fff"/>
  <circle cx="326.621" cy="165.625" r="4.5" fill="none" stroke="#fff" stroke-miterlimit="10" stroke-width="2.042"/>
  <path d="M328.5,160.9a5.6,5.6,0,1,0,5.6,5.6,5.591,5.591,0,0,0-5.6-5.6h0m0,2.1a3.5,3.5,0,1,1-3.5,3.5h0a3.543,3.543,0,0,1,3.5-3.5" transform="translate(-1.879 -0.875)" fill="#010101"/>
  <path d="M328.5,160.9a5.6,5.6,0,1,0,5.6,5.6,5.591,5.591,0,0,0-5.6-5.6h0Zm0,2.1a3.5,3.5,0,1,1-3.5,3.5h0a3.543,3.543,0,0,1,3.5-3.5" transform="translate(-1.879 -0.875)" fill="none" stroke="#fff" stroke-miterlimit="10" stroke-width="2.042"/>
  <rect x="12.521" y="39.925" width="196.7" height="91.5" fill="none" stroke="#010101" stroke-miterlimit="10" stroke-width="2.042"/>
  <path d="M23.8,52.9H201.6M23.8,66.4H201.6M23.8,79.8H201.6M23.8,93.3H201.6M23.8,106.7H201.6" transform="translate(-1.879 -0.875)" fill="none" stroke="#e6e5e8" stroke-miterlimit="10" stroke-width="2.042"/>
  <polyline points="28.621 114.925 61.821 93.725 94.921 104.925 128.021 74.125 161.021 78.925 195.021 56.825" fill="none" stroke="#f2c717" stroke-miterlimit="10" stroke-width="2.042"/>
  <line x1="21.921" y1="119.225" x2="199.721" y2="119.225" fill="none" stroke="#010101" stroke-miterlimit="10" stroke-width="2.042"/>
  <path d="M372.4,82.9a20.5,20.5,0,0,0,0-41,21.018,21.018,0,0,0-4.3.5,40.387,40.387,0,0,0-80.2-6.7,24.358,24.358,0,1,0-16.6,45.8,23.856,23.856,0,0,0,8.3,1.5l92.8-.1h0Z" transform="translate(-1.879 -0.875)" fill="#fff"/>
  <path d="M372.4,82.9a20.5,20.5,0,0,0,0-41,21.018,21.018,0,0,0-4.3.5,40.387,40.387,0,0,0-80.2-6.7,24.358,24.358,0,1,0-16.6,45.8,23.856,23.856,0,0,0,8.3,1.5l92.8-.1h0Z" transform="translate(-1.879 -0.875)" fill="none" stroke="#f2c717" stroke-miterlimit="10" stroke-width="2.45"/>
  <rect x="308.521" y="98.325" width="82.4" height="166.6" fill="#fff"/>
  <rect x="316.021" y="105.625" width="67.4" height="13" fill="#fff"/>
  <rect x="316.021" y="105.625" width="67.4" height="13" fill="none" stroke="#010101" stroke-miterlimit="10" stroke-width="2.042"/>
  <rect x="316.021" y="122.725" width="67.4" height="13" fill="#fff"/>
  <rect x="316.021" y="122.725" width="67.4" height="13" fill="none" stroke="#010101" stroke-miterlimit="10" stroke-width="2.042"/>
  <rect x="316.021" y="139.925" width="67.4" height="13" fill="#fff"/>
  <rect x="316.021" y="139.925" width="67.4" height="13" fill="none" stroke="#010101" stroke-miterlimit="10" stroke-width="2.042"/>
  <rect x="316.021" y="157.125" width="67.4" height="13" fill="#fff"/>
  <rect x="316.021" y="157.125" width="67.4" height="13" fill="none" stroke="#010101" stroke-miterlimit="10" stroke-width="2.042"/>
  <rect x="316.021" y="174.325" width="67.4" height="13" fill="#fff"/>
  <rect x="316.021" y="174.325" width="67.4" height="13" fill="none" stroke="#010101" stroke-miterlimit="10" stroke-width="2.042"/>
  <rect x="316.021" y="191.525" width="67.4" height="13" fill="#fff"/>
  <rect x="316.021" y="191.525" width="67.4" height="13" fill="none" stroke="#010101" stroke-miterlimit="10" stroke-width="2.042"/>
  <path d="M333.7,233.2h35.5M318,212h67.4" transform="translate(-1.879 -0.875)" fill="none" stroke="#010101" stroke-miterlimit="10" stroke-width="2.042"/>
  <path d="M358.7,233.2a7,7,0,1,1-7-7,6.957,6.957,0,0,1,7,7" transform="translate(-1.879 -0.875)" fill="#fff"/>
  <circle cx="349.821" cy="232.325" r="7" fill="none" stroke="#f2cc14" stroke-miterlimit="10" stroke-width="2.042"/>
  <line x1="349.721" y1="252.625" x2="349.721" y2="264.925" fill="none" stroke="#f2cc14" stroke-miterlimit="10" stroke-width="2.188"/>
  <line x1="308.521" y1="252.625" x2="390.921" y2="252.625" fill="none" stroke="#010101" stroke-miterlimit="10" stroke-width="2.042"/>
  <line x1="320.021" y1="112.025" x2="341.921" y2="112.025" fill="none" stroke="#f2cc14" stroke-miterlimit="10" stroke-width="2.042"/>
  <line x1="334.221" y1="129.225" x2="356.021" y2="129.225" fill="none" stroke="#f2cc14" stroke-miterlimit="10" stroke-width="2.042"/>
  <line x1="349.921" y1="146.425" x2="371.621" y2="146.425" fill="none" stroke="#f2cc14" stroke-miterlimit="10" stroke-width="2.042"/>
  <line x1="334.221" y1="163.625" x2="356.021" y2="163.625" fill="none" stroke="#f2cc14" stroke-miterlimit="10" stroke-width="2.042"/>
  <line x1="356.621" y1="180.825" x2="378.321" y2="180.825" fill="none" stroke="#f2cc14" stroke-miterlimit="10" stroke-width="2.042"/>
  <line x1="324.721" y1="198.025" x2="346.621" y2="198.025" fill="none" stroke="#f2cc14" stroke-miterlimit="10" stroke-width="2.042"/>
  <rect x="308.521" y="98.325" width="82.4" height="166.6" fill="none" stroke="#010101" stroke-miterlimit="10" stroke-width="2.051"/>
  <rect x="330.421" y="264.925" width="38.6" height="4.3" fill="#fff" stroke="#010101" stroke-miterlimit="10" stroke-width="2.051"/>
  <rect x="308.521" y="269.125" width="82.4" height="7.1" fill="#fff" stroke="#010101" stroke-miterlimit="10" stroke-width="2.042"/>
</svg>