<svg id="wrench" viewBox="0 0 100 100">
<path d="M0,84c0,2.2,0.4,4.3,1.3,6.2c0.8,1.9,2,3.7,3.4,5.1c1.4,1.4,3.2,2.6,5.1,3.4
	c3.8,1.7,8.4,1.7,12.4,0.1c1.9-0.8,3.7-2,5.2-3.5l39.9-39.9l0.3,0c0.7,0.1,1.5,0.2,2.3,0.3c3.3,0.3,6.6,0,9.6-0.9
	c2.4-0.7,4.6-1.6,6.7-2.8c2.1-1.2,4-2.7,5.7-4.4c1.7-1.7,3.2-3.6,4.4-5.7c1.2-2.1,2.2-4.3,2.8-6.7c0.7-2.4,1-4.8,1-7.4
	c0-1.7-0.1-3.4-0.4-4.8c-0.3-1.5-0.7-2.9-1.2-4.2c-0.5-1.4-1.1-2.7-1.8-4c-0.6-1.2-1.3-2.4-2-3.7L75.3,30.5l-5.7-5.7L88.8,5.4
	c-1.3-0.7-2.5-1.4-3.7-2c-1.3-0.7-2.7-1.3-4-1.8c-1.3-0.5-2.8-0.9-4.2-1.2C75.5,0.1,73.8,0,72.1,0c-2.5,0-5,0.3-7.4,1
	c-2.4,0.7-4.6,1.6-6.7,2.8c-2.1,1.2-4,2.7-5.7,4.4c-1.7,1.7-3.2,3.6-4.4,5.7c-1.2,2.1-2.2,4.3-2.8,6.7c-0.7,2.4-1,4.8-1,7.4
	c0,0.7,0,1.5,0.1,2.3c0.1,0.8,0.2,1.5,0.3,2.2l0,0.3L4.7,72.6c-1.5,1.5-2.7,3.3-3.5,5.2C0.4,79.8,0,81.9,0,84z M6.1,79.8
	c0.5-1.3,1.3-2.5,2.3-3.5l42-42c-0.2-1-0.4-2-0.6-3c-0.2-1.1-0.3-2.3-0.3-3.4c0-3.1,0.6-6.1,1.8-8.8c1.2-2.7,2.8-5.1,4.8-7.2
	c2-2,4.4-3.7,7.2-4.8C66,5.9,69,5.3,72.1,5.3c2.4,0,4.8,0.4,7.1,1.2L80,6.8l-17.9,18l13.2,13.2l18-17.9l0.3,0.8
	c0.8,2.3,1.2,4.7,1.2,7.1c0,3.1-0.6,6.1-1.8,8.8c-1.2,2.7-2.8,5.1-4.8,7.2c-2,2-4.4,3.7-7.2,4.8c-2.7,1.2-5.7,1.8-8.8,1.8
	c-1.2,0-2.3-0.1-3.4-0.3c-1-0.2-2-0.4-3-0.6l-42,42c-1,1-2.2,1.8-3.5,2.3c-1.3,0.5-2.7,0.8-4.1,0.8c-1.4,0-2.8-0.3-4.1-0.9
	c-1.3-0.6-2.4-1.3-3.4-2.3c-1-1-1.7-2.1-2.3-3.4c-0.6-1.3-0.9-2.7-0.9-4.1C5.3,82.5,5.6,81.2,6.1,79.8z"></path>
</svg>