<svg version="1.1" id="circle-x" xmlns="http://www.w3.org/2000/svg" xmlns:xlink="http://www.w3.org/1999/xlink" x="0px" y="0px"
	 viewBox="0 0 30 30" enable-background="new 0 0 30 30" xml:space="preserve">
<g>
	<path fill="#333333" d="M15,0.9c1.3,0,2.5,0.2,3.7,0.5c1.2,0.3,2.3,0.8,3.4,1.4s2,1.3,2.8,2.2c0.9,0.9,1.6,1.8,2.2,2.8
		c0.6,1,1.1,2.2,1.4,3.4s0.5,2.4,0.5,3.7s-0.2,2.5-0.5,3.7s-0.8,2.3-1.4,3.4c-0.6,1-1.3,2-2.2,2.8c-0.9,0.9-1.8,1.6-2.8,2.2
		s-2.2,1.1-3.4,1.4c-1.2,0.3-2.4,0.5-3.7,0.5s-2.5-0.2-3.7-0.5c-1.2-0.3-2.3-0.8-3.4-1.4s-2-1.3-2.8-2.2c-0.9-0.9-1.6-1.8-2.2-2.8
		c-0.6-1-1.1-2.2-1.4-3.4S0.9,16.3,0.9,15s0.2-2.5,0.5-3.7s0.8-2.3,1.4-3.4c0.6-1,1.3-2,2.2-2.8c0.9-0.9,1.8-1.6,2.8-2.2
		s2.2-1.1,3.4-1.4C12.5,1.1,13.7,0.9,15,0.9z M15,27.3c1.1,0,2.2-0.1,3.3-0.4s2-0.7,2.9-1.2c0.9-0.5,1.7-1.2,2.5-1.9
		c0.7-0.7,1.4-1.6,1.9-2.5c0.5-0.9,0.9-1.9,1.2-2.9c0.3-1,0.4-2.1,0.4-3.3s-0.1-2.2-0.4-3.3c-0.3-1-0.7-2-1.2-2.9
		c-0.5-0.9-1.2-1.7-1.9-2.5c-0.7-0.7-1.6-1.4-2.5-1.9c-0.9-0.5-1.9-1-2.9-1.2S16.1,2.7,15,2.7s-2.2,0.1-3.3,0.4s-2,0.7-2.9,1.2
		C7.9,4.9,7,5.6,6.3,6.3C5.6,7,4.9,7.9,4.4,8.8c-0.5,0.9-0.9,1.9-1.2,2.9c-0.3,1-0.4,2.1-0.4,3.3s0.1,2.2,0.4,3.3
		c0.3,1,0.7,2,1.2,2.9c0.5,0.9,1.2,1.7,1.9,2.5c0.7,0.7,1.6,1.4,2.5,1.9c0.9,0.5,1.9,1,2.9,1.2S13.9,27.3,15,27.3z M21.1,10.2
		L16.2,15l4.8,4.8l-1.2,1.2L15,16.2l-4.8,4.8l-1.2-1.2l4.8-4.8l-4.8-4.8l1.2-1.2l4.8,4.8l4.8-4.8L21.1,10.2z"/>
</g>
</svg>
